<?xml version="1.0" encoding="UTF-8" standalone="no"?>
<svg width="228px" height="228px" viewBox="0 0 228 228" version="1.1" xmlns="http://www.w3.org/2000/svg" xmlns:xlink="http://www.w3.org/1999/xlink">
    <!-- Generator: Sketch 41 (35326) - http://www.bohemiancoding.com/sketch -->
    <title>confirm-schedule</title>
    <desc>Created with Sketch.</desc>
    <defs></defs>
    <g id="Design" stroke="none" stroke-width="1" fill="none" fill-rule="evenodd">
        <g id="Agenda" transform="translate(-606.000000, -212.000000)" fill="#F8AC20">
            <g id="confirm-schedule" transform="translate(606.000000, 212.000000)">
                <path d="M63.9801778,92.3264889 L42.7001778,92.3264889 C38.4441778,92.3264889 35.6068444,95.1672 35.6068444,99.4282667 C35.6068444,103.689333 38.4441778,106.530044 42.7001778,106.530044 L63.9801778,106.530044 C68.2361778,106.530044 71.0735111,103.689333 71.0735111,99.4282667 C71.0735111,95.1672 68.2361778,92.3264889 63.9801778,92.3264889 Z" id="Shape"></path>
                <path d="M163.286844,99.4282667 C163.286844,103.689333 166.124178,106.530044 170.380178,106.530044 L198.753511,106.530044 C203.009511,106.530044 205.846844,103.689333 205.846844,99.4282667 C205.846844,95.1672 203.009511,92.3264889 198.753511,92.3264889 L170.380178,92.3264889 C166.124178,92.3264889 163.286844,95.1672 163.286844,99.4282667 Z" id="Shape"></path>
                <path d="M149.100178,92.3264889 L127.820178,92.3264889 C123.564178,92.3264889 120.726844,95.1672 120.726844,99.4282667 C120.726844,103.689333 123.564178,106.530044 127.820178,106.530044 L149.100178,106.530044 C153.356178,106.530044 156.193511,103.689333 156.193511,99.4282667 C156.193511,95.1672 153.356178,92.3264889 149.100178,92.3264889 Z" id="Shape"></path>
                <path d="M106.540178,92.3264889 L85.2601778,92.3264889 C81.0041778,92.3264889 78.1668444,95.1672 78.1668444,99.4282667 C78.1668444,103.689333 81.0041778,106.530044 85.2601778,106.530044 L106.540178,106.530044 C110.796178,106.530044 113.633511,103.689333 113.633511,99.4282667 C113.633511,95.1672 110.796178,92.3264889 106.540178,92.3264889 Z" id="Shape"></path>
                <path d="M63.9801778,127.837067 L42.7001778,127.837067 C38.4441778,127.837067 35.6068444,130.677778 35.6068444,134.938844 C35.6068444,139.199911 38.4441778,142.040622 42.7001778,142.040622 L63.9801778,142.040622 C68.2361778,142.040622 71.0735111,139.199911 71.0735111,134.938844 C71.0735111,130.677778 68.2361778,127.837067 63.9801778,127.837067 Z" id="Shape"></path>
                <path d="M198.753511,127.837067 L170.380178,127.837067 C166.124178,127.837067 163.286844,130.677778 163.286844,134.938844 C163.286844,139.199911 166.124178,142.040622 170.380178,142.040622 L198.753511,142.040622 C203.009511,142.040622 205.846844,139.199911 205.846844,134.938844 C205.846844,130.677778 203.009511,127.837067 198.753511,127.837067 Z" id="Shape"></path>
                <path d="M205.137511,14.2035556 L191.660178,14.2035556 L191.660178,7.10177778 C191.660178,2.84071111 188.822844,0 184.566844,0 C180.310844,0 177.473511,2.84071111 177.473511,7.10177778 L177.473511,14.2035556 L149.100178,14.2035556 L149.100178,7.10177778 C149.100178,2.84071111 146.262844,0 142.006844,0 C137.750844,0 134.913511,2.84071111 134.913511,7.10177778 L134.913511,14.2035556 L106.540178,14.2035556 L106.540178,7.10177778 C106.540178,2.84071111 103.702844,0 99.4468444,0 C95.1908444,0 92.3535111,2.84071111 92.3535111,7.10177778 L92.3535111,14.2035556 L63.9801778,14.2035556 L63.9801778,7.10177778 C63.9801778,2.84071111 61.1428444,0 56.8868444,0 C52.6308444,0 49.7935111,2.84071111 49.7935111,7.10177778 L49.7935111,14.2035556 L29.2228444,14.2035556 C15.7455111,14.2035556 0.140177778,25.5664 0.140177778,39.7716444 L0.140177778,188.204711 C0.140177778,203.119289 15.0361778,213.061778 29.2228444,213.061778 L78.1668444,213.061778 L79.5855111,213.061778 C89.5161778,222.294933 102.993511,227.265333 117.180178,227.265333 C131.366844,227.265333 144.844178,221.583911 154.774844,213.061778 L156.193511,213.061778 L205.137511,213.061778 C218.614844,213.061778 227.126844,203.119289 227.126844,188.204711 L227.126844,39.7716444 C227.126844,24.8570667 218.614844,14.2035556 205.137511,14.2035556 Z M117.180178,213.061778 C93.7721778,213.061778 74.6201778,193.886133 74.6201778,170.449422 C74.6201778,147.012711 93.7721778,127.837067 117.180178,127.837067 C140.588178,127.837067 159.740178,147.012711 159.740178,170.449422 C159.740178,193.886133 140.588178,213.061778 117.180178,213.061778 Z M212.940178,56.8159111 L198.753511,56.8159111 C194.497511,56.8159111 191.660178,59.6566222 191.660178,63.9176889 C191.660178,68.1787556 194.497511,71.0194667 198.753511,71.0194667 L212.940178,71.0194667 L212.940178,188.203022 C212.940178,198.856533 207.265511,198.856533 205.137511,198.856533 L166.124178,198.856533 C169.670844,192.464089 172.508178,185.362311 173.217511,177.5512 L198.753511,177.5512 C203.009511,177.5512 205.846844,174.710489 205.846844,170.449422 C205.846844,166.188356 203.009511,163.347644 198.753511,163.347644 L173.217511,163.347644 C169.670844,135.649867 145.553511,113.633511 117.180178,113.633511 C88.8068444,113.633511 64.6895111,134.938844 61.1428444,163.347644 L42.7001778,163.347644 C38.4441778,163.347644 35.6068444,166.188356 35.6068444,170.449422 C35.6068444,174.710489 38.4441778,177.5512 42.7001778,177.5512 L61.1428444,177.5512 C61.8521778,185.364 64.6895111,192.465778 68.2361778,198.856533 L29.2228444,198.856533 C22.8388444,198.856533 14.3268444,193.884444 14.3268444,188.203022 L14.3268444,71.0211556 L170.380178,71.0211556 C174.636178,71.0211556 177.473511,68.1804444 177.473511,63.9193778 C177.473511,59.6583111 174.636178,56.8176 170.380178,56.8176 L14.3268444,56.8176 L14.3268444,39.7716444 C14.3268444,34.7995556 22.1295111,28.4088 29.2228444,28.4088 L49.7935111,28.4088 L49.7935111,35.5105778 C49.7935111,39.7716444 52.6308444,42.6123556 56.8868444,42.6123556 C61.1428444,42.6123556 63.9801778,39.7716444 63.9801778,35.5105778 L63.9801778,28.4088 L92.3535111,28.4088 L92.3535111,35.5105778 C92.3535111,39.7716444 95.1908444,42.6123556 99.4468444,42.6123556 C103.702844,42.6123556 106.540178,39.7716444 106.540178,35.5105778 L106.540178,28.4088 L134.913511,28.4088 L134.913511,35.5105778 C134.913511,39.7716444 137.750844,42.6123556 142.006844,42.6123556 C146.262844,42.6123556 149.100178,39.7716444 149.100178,35.5105778 L149.100178,28.4088 L177.473511,28.4088 L177.473511,35.5105778 C177.473511,39.7716444 180.310844,42.6123556 184.566844,42.6123556 C188.822844,42.6123556 191.660178,39.7716444 191.660178,35.5105778 L191.660178,28.4088 L205.137511,28.4088 C212.230844,28.4088 212.940178,35.5105778 212.940178,39.7716444 L212.940178,56.8159111 L212.940178,56.8159111 Z" id="Shape"></path>
                <path d="M133.494844,151.273778 L110.086844,174.710489 L100.865511,165.477333 C98.0281778,162.636622 93.7721778,162.636622 90.9348444,165.477333 C88.0975111,168.318044 88.0975111,172.579111 90.9348444,175.419822 L105.121511,189.623378 C105.830844,190.3344 105.830844,190.3344 106.540178,190.3344 L107.249511,191.045422 C107.958844,191.045422 108.668178,191.756444 110.086844,191.756444 C110.796178,191.756444 112.214844,191.756444 112.924178,191.045422 L113.633511,190.3344 C114.342844,190.3344 114.342844,189.623378 115.052178,189.623378 L143.425511,161.214578 C146.262844,158.373867 146.262844,154.1128 143.425511,151.272089 C140.588178,148.433067 136.332178,148.433067 133.494844,151.273778 Z" id="Shape"></path>
            </g>
        </g>
    </g>
</svg>