<?xml version="1.0" encoding="UTF-8" standalone="no"?>
<svg width="200px" height="194px" viewBox="0 0 200 194" version="1.1" xmlns="http://www.w3.org/2000/svg" xmlns:xlink="http://www.w3.org/1999/xlink">
    <!-- Generator: Sketch 41 (35326) - http://www.bohemiancoding.com/sketch -->
    <title>conference</title>
    <desc>Created with Sketch.</desc>
    <defs></defs>
    <g id="Design" stroke="none" stroke-width="1" fill="none" fill-rule="evenodd">
        <g id="Home" transform="translate(-260.000000, -1823.000000)" fill="#A55A99">
            <g id="VENUE" transform="translate(0.000000, 1598.000000)">
                <g id="conference" transform="translate(260.000000, 225.000000)">
                    <path d="M190.127734,154.120703 C191.567969,152.0375 192.414062,149.514063 192.414062,146.795313 L192.414062,135.235938 C192.414062,128.114453 186.620312,122.320703 179.498828,122.320703 L175.040625,122.320703 C167.333203,122.320703 161.0625,128.591406 161.0625,136.298828 L161.0625,145.732031 C161.0625,148.784375 162.048438,151.609375 163.715234,153.910547 C161.312109,155.215234 159.215625,157.0125 157.553516,159.162109 C155.976953,157.123438 154.007031,155.405469 151.757812,154.120313 C153.198047,152.037109 154.044141,149.513672 154.044141,146.794922 L154.044141,135.235547 C154.044141,128.114063 148.250391,122.320313 141.128906,122.320313 L136.671875,122.320313 C135.066797,122.320313 133.525391,122.595703 132.088672,123.096094 L132.088672,107.210938 L142.279687,107.210938 C144.530469,107.210938 146.355859,105.385938 146.355859,103.134766 L146.355859,82.753125 C146.355859,80.5019531 144.530469,78.6769531 142.279687,78.6769531 L136.572656,78.6769531 L136.572656,60.9785156 C136.572656,48.7253906 127.203516,39.8011719 113.257812,38.1316406 C115.253906,35.003125 116.394531,31.1066406 116.394531,26.7371094 L116.394531,19.6039063 C116.394531,8.44375 108.980078,0.343359375 98.7644531,0.343359375 L96.1148437,0.343359375 C85.8992187,0.343359375 78.4847656,8.44375 78.4847656,19.6039063 L78.4847656,26.7375 C78.4847656,31.1070313 79.6253906,35.0035156 81.6214844,38.1320313 C67.6761719,39.8011719 58.3066406,48.7257813 58.3066406,60.9789063 L58.3066406,78.6773438 L52.5996094,78.6773438 C50.3484375,78.6773438 48.5234375,80.5023438 48.5234375,82.7535156 L48.5234375,103.135156 C48.5234375,105.386719 50.3488281,107.211328 52.5996094,107.211328 L62.790625,107.211328 L62.790625,122.320703 L59.9328125,122.320703 C52.2253906,122.320703 45.9546875,128.591406 45.9546875,136.298828 L45.9546875,145.732031 C45.9546875,148.784375 46.940625,151.609375 48.6074219,153.910547 C46.2042969,155.215234 44.1078125,157.0125 42.4457031,159.162109 C40.8691406,157.123438 38.8992187,155.405469 36.65,154.120313 C38.0902344,152.037109 38.9363281,149.513672 38.9363281,146.794922 L38.9363281,135.235547 C38.9363281,128.114063 33.1425781,122.320313 26.0210937,122.320313 L21.5636719,122.320313 C13.85625,122.320313 7.58554688,128.591016 7.58554688,136.298438 L7.58554688,145.731641 C7.58554688,148.783984 8.57148438,151.608984 10.2382813,153.910156 C4.14570312,157.21875 0,163.674609 0,171.081641 L0,189.330469 C0,191.581641 1.82539063,193.406641 4.07617188,193.406641 L42.4457031,193.406641 L80.8152344,193.406641 L119.184766,193.406641 L157.554297,193.406641 L195.923828,193.406641 C198.174609,193.406641 200,191.581641 200,189.330469 L200,171.081641 C200,163.825781 196.018359,157.485938 190.127734,154.120703 Z M15.7378906,136.299219 C15.7378906,133.087109 18.3511719,130.473828 21.5632813,130.473828 L26.0214844,130.473828 C28.646875,130.473828 30.7839844,132.610156 30.7839844,135.236328 L30.7839844,146.795703 C30.7839844,149.421094 28.6476563,151.557813 26.0214844,151.557813 L21.5636719,151.557813 C18.3515625,151.557813 15.7382813,148.944531 15.7382813,145.732422 L15.7382813,136.299219 L15.7378906,136.299219 Z M38.3699219,185.254297 L8.15273437,185.254297 L8.15273437,171.081641 C8.15273437,164.811328 13.2539062,159.710156 19.5242187,159.710156 L26.9984375,159.710156 C33.26875,159.710156 38.3699219,164.811328 38.3699219,171.081641 L38.3699219,185.254297 Z M136.671875,130.473828 L141.130078,130.473828 C143.755469,130.473828 145.892578,132.610156 145.892578,135.236328 L145.892578,146.795703 C145.892578,149.421094 143.75625,151.557813 141.130078,151.557813 L136.671875,151.557813 C133.459766,151.557813 130.846484,148.944531 130.846484,145.732422 L130.846484,136.299219 C130.846484,133.087109 133.459766,130.473828 136.671875,130.473828 Z M86.6375,19.6039063 C86.6375,14.0746094 89.5679688,8.49570313 96.1148438,8.49570313 L98.7644531,8.49570313 C105.311328,8.49570313 108.241797,14.0746094 108.241797,19.6039063 L108.241797,26.7375 C108.241797,32.2667969 105.311328,37.8457031 98.7644531,37.8457031 L96.1148438,37.8457031 C89.5679688,37.8457031 86.6375,32.2667969 86.6375,26.7375 L86.6375,19.6039063 Z M103.030078,45.9984375 L97.4398437,54.7804688 L91.8496094,45.9984375 L103.030078,45.9984375 Z M66.4597656,60.9789063 C66.4597656,52.0574219 73.9234375,47.3878906 82.3578125,46.26875 L94.0011719,64.5605469 C94.7492188,65.7363281 96.0460938,66.4480469 97.4398438,66.4480469 C98.8335938,66.4480469 100.130469,65.7363281 100.878516,64.5605469 L112.521875,46.26875 C120.95625,47.3878906 128.419922,52.0570313 128.419922,60.9789063 L128.419922,78.6773438 L121.286328,78.6773438 L121.286328,68.2144531 C121.286328,65.9632813 119.460938,64.1382813 117.210156,64.1382813 C114.959375,64.1382813 113.133984,65.9632813 113.133984,68.2144531 L113.133984,78.6773438 L81.7460938,78.6773438 L81.7460938,68.2144531 C81.7460938,65.9632813 79.9207031,64.1382813 77.6699219,64.1382813 C75.4191406,64.1382813 73.59375,65.9632813 73.59375,68.2144531 L73.59375,78.6773438 L66.4601563,78.6773438 L66.4601563,60.9789063 L66.4597656,60.9789063 Z M56.6761719,99.0589844 L56.6761719,86.8300781 L138.203125,86.8300781 L138.203125,99.0589844 L56.6761719,99.0589844 Z M54.1074219,136.299219 C54.1074219,133.087109 56.7207031,130.473828 59.9328125,130.473828 L64.3910156,130.473828 C67.0164063,130.473828 69.1535156,132.610156 69.1535156,135.236328 L69.1535156,146.795703 C69.1535156,149.421094 67.0171875,151.557813 64.3910156,151.557813 L59.9328125,151.557813 C56.7207031,151.557813 54.1074219,148.944531 54.1074219,145.732422 L54.1074219,136.299219 Z M76.7394531,185.254297 L46.5226563,185.254297 L46.5226563,171.081641 L46.5222656,171.081641 C46.5222656,164.811328 51.6234375,159.710156 57.89375,159.710156 L65.3679688,159.710156 C71.6382813,159.710156 76.7394531,164.811328 76.7394531,171.081641 L76.7394531,185.254297 L76.7394531,185.254297 Z M115.108594,185.254297 L84.8917969,185.254297 L84.8917969,171.081641 L84.8914063,171.081641 C84.8914063,164.811328 89.9925781,159.710156 96.2628906,159.710156 L103.737109,159.710156 C110.007422,159.710156 115.108594,164.811328 115.108594,171.081641 L115.108594,185.254297 L115.108594,185.254297 Z M92.4769531,145.732422 L92.4769531,136.299219 C92.4769531,133.087109 95.0902344,130.473828 98.3023437,130.473828 L102.760547,130.473828 C105.385937,130.473828 107.523047,132.610156 107.523047,135.236328 L107.523047,146.795703 C107.523047,149.421094 105.386719,151.557813 102.760547,151.557813 L98.3023437,151.557813 C95.0902344,151.557422 92.4769531,148.944141 92.4769531,145.732422 Z M119.184766,159.162109 C117.608203,157.123438 115.638281,155.405469 113.389063,154.120313 C114.829297,152.0375 115.675391,149.513672 115.675391,146.794922 L115.675391,135.235547 C115.675391,128.114063 109.881641,122.320313 102.760156,122.320313 L98.3019531,122.320313 C90.5945313,122.320313 84.3238281,128.591016 84.3238281,136.298438 L84.3238281,145.731641 C84.3238281,148.783984 85.3097656,151.608984 86.9765625,153.910156 C84.5734375,155.214844 82.4769531,157.012109 80.8148438,159.161719 C79.2382813,157.123047 77.2683594,155.405078 75.0191406,154.119922 C76.459375,152.036719 77.3054688,149.513281 77.3054688,146.794531 L77.3054688,135.235156 C77.3054688,130.504688 74.7472656,126.362109 70.9429688,124.1125 L70.9429688,107.210547 L123.935938,107.210547 L123.935938,107.210547 L123.935938,130.548438 C123.140234,132.303906 122.693359,134.248828 122.693359,136.298047 L122.693359,145.73125 C122.693359,148.783594 123.679297,151.608594 125.346094,153.909766 C122.943359,155.215625 120.846875,157.012891 119.184766,159.162109 Z M153.478125,185.254297 L123.261328,185.254297 L123.261328,171.081641 L123.260937,171.081641 C123.260937,164.811328 128.362109,159.710156 134.632422,159.710156 L142.106641,159.710156 C148.376953,159.710156 153.478125,164.811328 153.478125,171.081641 L153.478125,185.254297 Z M169.215625,136.299219 C169.215625,133.087109 171.828906,130.473828 175.041016,130.473828 L179.499219,130.473828 C182.124609,130.473828 184.261719,132.610156 184.261719,135.236328 L184.261719,146.795703 C184.261719,149.421094 182.125391,151.557813 179.499219,151.557813 L175.041016,151.557813 C171.828906,151.557813 169.215625,148.944531 169.215625,145.732422 L169.215625,136.299219 Z M191.847656,185.254297 L191.847266,185.254297 L161.630469,185.254297 L161.630469,171.081641 C161.630469,164.811328 166.731641,159.710156 173.001953,159.710156 L180.476172,159.710156 C186.746484,159.710156 191.847656,164.811328 191.847656,171.081641 L191.847656,185.254297 Z" id="Shape"></path>
                    <circle id="Oval" cx="97.4410156" cy="72.5648437" r="4.07617188"></circle>
                </g>
            </g>
        </g>
    </g>
</svg>