<?xml version="1.0" encoding="UTF-8" standalone="no"?>
<svg width="201px" height="215px" viewBox="0 0 201 215" version="1.1" xmlns="http://www.w3.org/2000/svg" xmlns:xlink="http://www.w3.org/1999/xlink">
    <!-- Generator: Sketch 41 (35326) - http://www.bohemiancoding.com/sketch -->
    <title>funding</title>
    <desc>Created with Sketch.</desc>
    <defs></defs>
    <g id="Design" stroke="none" stroke-width="1" fill="none" fill-rule="evenodd">
        <g id="Pitches" transform="translate(-353.000000, -796.000000)">
            <g id="funding" transform="translate(453.160459, 900.962330) rotate(-140.000000) translate(-453.160459, -900.962330) translate(372.160459, 788.962330)">
                <path d="M86.70233,106.189576 L86.70233,103.080727 C86.70233,99.9560404 84.1704512,97.4241616 81.0457643,97.4241616 C77.9210774,97.4241616 75.3891987,99.9560404 75.3891987,103.080727 L75.3891987,106.338155 C66.1870976,108.908498 59.4135488,117.376754 59.4135488,127.405468 C59.4135488,137.433428 66.1863434,145.900175 75.3891987,148.470519 L75.3891987,168.577724 C71.2651852,166.321886 67.4322963,162.558384 66.0038249,160.893091 C63.9795286,158.515825 60.4106128,158.226963 58.03033,160.252013 C55.6515556,162.277064 55.364202,165.846734 57.3892525,168.225508 C58.3674613,169.374923 65.9268956,177.966114 75.3891987,180.795152 L75.3891987,184.149872 C75.3891987,187.274559 77.9210774,189.806438 81.0457643,189.806438 C84.1704512,189.806438 86.70233,187.274559 86.70233,184.149872 L86.70233,181.007084 C96.1088215,178.572498 103.07771,170.000916 103.07771,159.830411 C103.07771,149.659906 96.1088215,141.088323 86.70233,138.654492 L86.70233,118.063084 C91.0111246,119.827178 94.8545724,123.051421 96.3411178,124.571152 C98.5147475,126.805118 102.08668,126.859421 104.328189,124.691071 C106.574222,122.518949 106.633051,118.937966 104.460175,116.692687 C103.527219,115.728054 96.2211987,108.435609 86.70233,106.189576 Z M70.7266801,127.405468 C70.7266801,123.75736 72.5790168,120.536889 75.3891987,118.6393 L75.3891987,136.170128 C72.5790168,134.272539 70.7266801,131.052822 70.7266801,127.405468 Z M91.7645791,159.830411 C91.7645791,163.644444 89.7319865,166.981064 86.70233,168.836418 L86.70233,150.824404 C89.7319865,152.680512 91.7645791,156.017131 91.7645791,159.830411 Z" id="Shape" fill="#F8AC20" transform="translate(81.046042, 143.615300) rotate(-40.000000) translate(-81.046042, -143.615300) "></path>
                <path d="M81.0457643,81.2969158 C46.8921751,81.2969158 19.1063704,109.082721 19.1063704,143.23631 C19.1063704,177.389899 46.8921751,205.175704 81.0457643,205.175704 C115.199354,205.175704 142.985158,177.389899 142.985158,143.23631 C142.985158,109.082721 115.199354,81.2969158 81.0457643,81.2969158 Z M81.0457643,193.862572 C53.1302357,193.862572 30.4195017,171.151838 30.4195017,143.23631 C30.4195017,115.320781 53.1302357,92.6100471 81.0457643,92.6100471 C108.961293,92.6100471 131.672027,115.320781 131.672027,143.23631 C131.672027,171.151838 108.961293,193.862572 81.0457643,193.862572 Z" id="Shape" fill="#F17721"></path>
                <path d="M31.016835,36.3272189 C34.1415219,36.3272189 36.6734007,33.7953401 36.6734007,30.6706532 L36.6734007,18.1636094 C36.6734007,15.0389226 34.1415219,12.5070438 31.016835,12.5070438 C27.8921481,12.5070438 25.3602694,15.0389226 25.3602694,18.1636094 L25.3602694,30.6706532 C25.3602694,33.7953401 27.8921481,36.3272189 31.016835,36.3272189 Z" id="Shape" fill="#F17721"></path>
                <path d="M156.089535,87.5508148 C152.964848,87.5508148 150.43297,90.0826936 150.43297,93.2073805 L150.43297,102.075367 C143.932444,91.1581953 134.931717,81.8965118 124.224215,75.0882694 L124.224215,50.7582492 C124.224215,47.6335623 121.692337,45.1016835 118.56765,45.1016835 C115.442963,45.1016835 112.911084,47.6335623 112.911084,50.7582492 L112.911084,69.0990976 C103.129751,64.8792997 92.3573872,62.5359731 81.0457643,62.5359731 C74.3740337,62.5359731 67.8923636,63.3550438 61.6874882,64.8883502 L61.6874882,44.7404175 C61.6874882,41.6157306 59.1556094,39.0838519 56.0309226,39.0838519 C52.9062357,39.0838519 50.3743569,41.6157306 50.3743569,44.7404175 L50.3743569,68.5967946 C45.5557172,70.5841347 40.9716364,73.024 36.6734007,75.8651044 L36.6734007,56.4894815 C36.6734007,53.3647946 34.1415219,50.8329158 31.016835,50.8329158 C27.8921481,50.8329158 25.3602694,53.3647946 25.3602694,56.4894815 L25.3602694,84.8794074 C20.0513939,89.9476902 15.4348822,95.7339798 11.6585589,102.075367 L11.6585589,55.6854949 C11.6585589,52.5608081 9.12668013,50.0289293 6.00199327,50.0289293 C2.8773064,50.0289293 0.345427609,52.5608081 0.345427609,55.6854949 L0.345427609,143.23631 C0.345427609,187.734626 36.5474478,223.936646 81.0457643,223.936646 C125.544081,223.936646 161.746101,187.734626 161.746101,143.23631 L161.746101,93.2073805 C161.746101,90.0826936 159.214222,87.5508148 156.089535,87.5508148 Z M81.0457643,212.623515 C42.7862626,212.623515 11.6585589,181.496566 11.6585589,143.23631 C11.6585589,104.976054 42.7855084,73.8491044 81.0457643,73.8491044 C119.30602,73.8491044 150.43297,104.976054 150.43297,143.23631 C150.43297,181.496566 119.305266,212.623515 81.0457643,212.623515 Z" id="Shape" fill="#F17721"></path>
                <path d="M156.089535,50.0289293 C152.964848,50.0289293 150.43297,52.5608081 150.43297,55.6854949 L150.43297,68.1925387 C150.43297,71.3172256 152.964848,73.8491044 156.089535,73.8491044 C159.214222,73.8491044 161.746101,71.3172256 161.746101,68.1925387 L161.746101,55.6854949 C161.746101,52.5608081 159.214222,50.0289293 156.089535,50.0289293 Z" id="Shape" fill="#F17721"></path>
                <path d="M118.56765,35.0005657 C121.692337,35.0005657 124.224215,32.4686869 124.224215,29.344 L124.224215,16.8369562 C124.224215,13.7122694 121.692337,11.1803906 118.56765,11.1803906 C115.442963,11.1803906 112.911084,13.7122694 112.911084,16.8369562 L112.911084,29.344 C112.911084,32.4686869 115.442963,35.0005657 118.56765,35.0005657 Z" id="Shape" fill="#F17721"></path>
                <path d="M81.0457643,48.8350168 C84.1704512,48.8350168 86.70233,46.303138 86.70233,43.1784512 L86.70233,18.1636094 C86.70233,15.0389226 84.1704512,12.5070438 81.0457643,12.5070438 C77.9210774,12.5070438 75.3891987,15.0389226 75.3891987,18.1636094 L75.3891987,43.1784512 C75.3891987,46.303138 77.9210774,48.8350168 81.0457643,48.8350168 Z" id="Shape" fill="#F17721"></path>
                <path d="M56.0309226,23.8201751 C59.1556094,23.8201751 61.6874882,21.2882963 61.6874882,18.1636094 L61.6874882,5.65656566 C61.6874882,2.53187879 59.1556094,-6.25277607e-13 56.0309226,-6.25277607e-13 C52.9062357,-6.25277607e-13 50.3743569,2.53187879 50.3743569,5.65656566 L50.3743569,18.1636094 C50.3743569,21.2882963 52.9062357,23.8201751 56.0309226,23.8201751 Z" id="Shape" fill="#F17721"></path>
            </g>
        </g>
    </g>
</svg>