<?xml version="1.0" encoding="UTF-8" standalone="no"?>
<svg width="298px" height="298px" viewBox="0 0 298 298" version="1.1" xmlns="http://www.w3.org/2000/svg" xmlns:xlink="http://www.w3.org/1999/xlink">
    <!-- Generator: Sketch 41 (35326) - http://www.bohemiancoding.com/sketch -->
    <title>idea</title>
    <desc>Created with Sketch.</desc>
    <defs></defs>
    <g id="Design" stroke="none" stroke-width="1" fill="none" fill-rule="evenodd">
        <g id="Home" transform="translate(-158.000000, -833.000000)">
            <g id="idea" transform="translate(158.000000, 833.000000)">
                <path d="M193.506196,59.5406084 C193.506196,34.916014 173.475594,14.8854126 148.851,14.8854126 C124.226406,14.8854126 104.195804,34.916014 104.195804,59.5406084 C104.195804,74.4208112 111.732287,88.3778392 124.043021,96.6291049 L124.043021,104.449 C118.386231,105.600364 114.119413,110.61114 114.119413,116.600315 C114.119413,121.016133 116.451315,124.866168 119.929371,127.069909 C119.403182,128.444252 119.081217,129.92279 119.081217,131.485727 C119.081217,138.328266 124.643189,143.890238 131.485727,143.890238 L166.217315,143.890238 C173.059853,143.890238 178.621825,138.328266 178.621825,131.485727 C178.621825,129.92279 178.298818,128.444252 177.773671,127.069909 C181.251727,124.86721 183.583629,121.016133 183.583629,116.600315 C183.583629,110.606972 179.316811,105.600364 173.660021,104.449 L173.660021,96.6291049 C185.969713,88.3778392 193.506196,74.4208112 193.506196,59.5406084 Z M166.217315,133.965587 L131.484685,133.965587 C130.11972,133.965587 129.003783,132.84965 129.003783,131.484685 C129.003783,130.11972 130.11972,129.003783 131.484685,129.003783 L166.216273,129.003783 C167.581238,129.003783 168.697175,130.11972 168.697175,131.484685 C168.697175,132.84965 167.581238,133.965587 166.217315,133.965587 Z M171.179119,119.081217 L166.217315,119.081217 L131.484685,119.081217 L126.522881,119.081217 C125.157916,119.081217 124.041979,117.96528 124.041979,116.600315 C124.041979,115.23535 125.158958,114.119413 126.523923,114.119413 L171.179119,114.119413 C172.544084,114.119413 173.660021,115.23535 173.660021,116.600315 C173.660021,117.96528 172.544084,119.081217 171.179119,119.081217 Z M143.889196,59.5406084 C143.889196,56.8013007 146.111692,54.5788042 148.851,54.5788042 C151.590308,54.5788042 153.812804,56.8013007 153.812804,59.5406084 C153.812804,62.2799161 151.590308,64.5024126 148.851,64.5024126 C146.112734,64.5024126 143.889196,62.2788741 143.889196,59.5406084 Z M166.212105,89.5885944 L163.736413,91.0223287 L163.736413,104.195804 L153.812804,104.195804 L153.812804,73.5122238 C159.57379,71.4585245 163.736413,65.9997063 163.736413,59.5395664 C163.736413,51.3331049 157.057462,44.6541538 148.851,44.6541538 C140.644538,44.6541538 133.965587,51.3331049 133.965587,59.5395664 C133.965587,65.9997063 138.12821,71.4574825 143.889196,73.5122238 L143.889196,104.195804 L133.965587,104.195804 L133.965587,91.0223287 L131.489895,89.5885944 C120.777524,83.3816503 114.119413,71.8648881 114.119413,59.5406084 C114.119413,40.3935874 129.703979,24.809021 148.851,24.809021 C167.998021,24.809021 183.582587,40.3935874 183.582587,59.5406084 C183.582587,71.8659301 176.924476,83.3816503 166.212105,89.5885944 Z" id="Shape" fill="#F8AC20"></path>
                <path d="M190.678322,232.703615 C188.420399,226.978056 182.98242,223.275979 176.830699,223.275979 L173.660021,223.275979 L173.660021,166.216273 C173.660021,156.640678 165.870343,148.849958 156.293706,148.849958 C146.71707,148.849958 138.927392,156.639636 138.927392,166.216273 L138.927392,189.809329 C137.166483,189.060161 135.300336,188.544392 133.320615,188.544392 L128.612007,188.544392 C120.623315,188.544392 114.118371,195.049336 114.118371,203.038028 L114.118371,203.429804 L108.76479,203.429804 C100.776098,203.429804 94.2711538,209.934748 94.2711538,217.923441 L94.2711538,218.315217 L93.8804196,218.315217 C85.8917273,218.315217 79.3867832,224.820161 79.3867832,232.808853 L79.3867832,233.200629 L79.3867832,234.212371 L79.3867832,244.170364 C79.3867832,250.997273 80.7611259,257.63142 83.4754266,263.897755 L90.9973217,281.25886 C93.1708462,286.274846 94.2721958,291.579455 94.2721958,297.042441 L94.2721958,297.702 L104.195804,297.702 L104.195804,297.037231 C104.195804,290.210322 102.821462,283.576175 100.107161,277.309839 L92.5852657,259.948734 C91.2953217,256.97186 90.4273706,253.880371 89.9011818,250.72949 L108.557441,269.385748 C111.460336,272.288643 115.270776,273.736965 119.081217,273.736965 C122.891657,273.736965 126.702098,272.288643 129.604993,269.385748 L130.458357,268.532385 C132.810056,266.180685 134.159392,263.228818 134.606392,260.171713 C134.804364,260.182133 134.998168,260.225895 135.197182,260.225895 C137.871888,260.225895 140.561182,259.491315 142.932678,257.987769 L143.234846,257.799175 C143.94442,257.323 144.584182,256.777014 145.189559,256.196643 C147.427685,258.210748 150.160741,259.724713 153.242853,260.493678 L159.896797,262.160811 L164.000028,274.461126 L173.407867,271.320664 L167.58749,253.850154 L155.649776,250.86286 C151.645531,249.865706 148.852042,246.292832 148.852042,242.169804 C148.852042,237.222587 152.876084,233.198545 157.823301,233.198545 L163.737455,233.198545 L173.661063,233.198545 L176.831741,233.198545 C178.851056,233.198545 180.706783,234.463483 181.446573,236.339007 L187.514937,251.740189 C188.199503,253.48651 188.546476,255.322441 188.546476,257.192755 L188.546476,258.284727 C188.546476,260.582245 188.005699,262.88914 186.978329,264.942839 L181.24235,276.414797 C179.530413,279.833462 178.622867,283.674119 178.622867,287.499147 L178.622867,297.699916 L188.546476,297.699916 L188.546476,287.499147 C188.546476,285.201629 189.087252,282.894734 190.114622,280.841035 L195.850601,269.369077 C197.562538,265.950413 198.470084,262.109755 198.470084,258.284727 L198.470084,257.192755 C198.470084,254.072091 197.889713,251.014986 196.743559,248.102713 L190.678322,232.703615 Z M123.441811,261.516881 L122.588448,262.370245 C120.648322,264.310371 117.51307,264.310371 115.572944,262.370245 L90.6503497,237.44765 C89.7865664,236.583867 89.3103916,235.433545 89.3103916,234.212371 L89.3103916,233.200629 L89.3103916,232.808853 C89.3103916,230.288357 91.3599231,228.238825 93.8804196,228.238825 L95.284979,228.238825 C96.5051119,228.238825 97.6564755,228.715 98.515049,229.578783 L123.437643,254.501378 C125.377769,256.436294 125.377769,259.581965 123.441811,261.516881 Z M139.55465,246.938846 C139.344175,247.738028 138.868,248.740392 137.806245,249.48435 L137.707259,249.548951 C135.896336,250.749287 133.480035,250.51172 131.946273,248.977958 L130.453147,247.484832 L105.530552,222.562238 C104.671979,221.698455 104.195804,220.548133 104.195804,219.326958 L104.195804,217.922399 C104.195804,215.401902 106.245336,213.352371 108.765832,213.352371 L114.313217,213.352371 C115.741741,213.352371 117.096287,214.031727 117.95486,215.168503 L129.466413,230.510294 L138.844035,242.988783 C138.883629,243.038797 138.918014,243.123196 138.95865,243.123196 L138.96907,243.123196 L139.019084,243.212804 C139.088895,244.468364 139.286867,245.698916 139.594245,246.884664 C139.579657,246.904462 139.574448,246.924259 139.55465,246.938846 Z M148.846832,224.725343 C148.852042,226.099685 144.495615,228.237783 142.451294,233.199587 L142.436706,233.199587 L131.794147,218.041182 L125.909168,209.715937 L124.960986,208.088399 C124.355608,207.279839 124.043021,206.212874 124.043021,205.21051 L124.043021,203.038028 C124.043021,200.517531 126.092552,198.468 128.613049,198.468 L133.321657,198.468 C134.978371,198.468 135.638972,199.371378 136.442322,200.819699 L148.846832,224.720133 L148.846832,224.725343 Z M163.736413,223.277021 L161.141937,223.277021 L148.852042,201.157294 L148.852042,166.217315 C148.851,162.114084 152.190476,158.774608 156.293706,158.774608 C160.396937,158.774608 163.736413,162.114084 163.736413,166.217315 L163.736413,223.277021 Z" id="Shape" fill="#A55A99"></path>
                <rect id="Rectangle-path" fill="#E34343" x="143.889196" y="0" width="9.92360839" height="9.92360839"></rect>
                <rect id="Rectangle-path" fill="#F17721" transform="translate(121.562197, 12.275354) rotate(60.007099) translate(-121.562197, -12.275354) " x="116.600321" y="7.31347748" width="9.92375337" height="9.92375337"></rect>
                <rect id="Rectangle-path" fill="#A55A99" transform="translate(101.581932, 32.251705) rotate(29.992901) translate(-101.581932, -32.251705) " x="96.6200551" y="27.2898279" width="9.92375337" height="9.92375337"></rect>
                <rect id="Rectangle-path" fill="#F17721" x="89.3103916" y="54.5788042" width="9.92360839" height="9.92360839"></rect>
                <rect id="Rectangle-path" fill="#E34343" transform="translate(101.580653, 86.833287) rotate(240.007099) translate(-101.580653, -86.833287) " x="96.6187763" y="81.8714107" width="9.92375337" height="9.92375337"></rect>
                <rect id="Rectangle-path" fill="#E34343" transform="translate(196.110940, 86.823941) rotate(209.992901) translate(-196.110940, -86.823941) " x="191.149064" y="81.862064" width="9.92375337" height="9.92375337"></rect>
                <rect id="Rectangle-path" fill="#F17721" x="198.468" y="54.5788042" width="9.92360839" height="9.92360839"></rect>
                <rect id="Rectangle-path" fill="#A55A99" transform="translate(196.120248, 32.260388) rotate(60.007099) translate(-196.120248, -32.260388) " x="191.158371" y="27.2985115" width="9.92375337" height="9.92375337"></rect>
                <rect id="Rectangle-path" fill="#F17721" transform="translate(176.135388, 12.270747) rotate(29.992901) translate(-176.135388, -12.270747) " x="171.173511" y="7.30887077" width="9.92375337" height="9.92375337"></rect>
                <polygon id="Shape" fill="#F17721" points="287.778392 59.5406084 287.778392 49.617 277.855825 49.617 277.855825 59.5406084 267.932217 59.5406084 267.932217 69.4642168 277.855825 69.4642168 277.855825 79.3867832 287.778392 79.3867832 287.778392 69.4642168 297.702 69.4642168 297.702 59.5406084"></polygon>
                <polygon id="Shape" fill="#E34343" points="238.161392 29.7697832 248.085 29.7697832 248.085 19.8472168 258.008608 19.8472168 258.008608 9.92360839 248.085 9.92360839 248.085 0 238.161392 0 238.161392 9.92360839 228.238825 9.92360839 228.238825 19.8472168 238.161392 19.8472168"></polygon>
                <polygon id="Shape" fill="#F17721" points="19.8472168 79.3867832 9.92360839 79.3867832 9.92360839 89.3103916 0 89.3103916 0 99.234 9.92360839 99.234 9.92360839 109.157608 19.8472168 109.157608 19.8472168 99.234 29.7697832 99.234 29.7697832 89.3103916 19.8472168 89.3103916"></polygon>
                <polygon id="Shape" fill="#F8AC20" points="64.5024126 39.6933916 54.5788042 39.6933916 54.5788042 29.7697832 44.6551958 29.7697832 44.6551958 39.6933916 34.7315874 39.6933916 34.7315874 49.617 44.6551958 49.617 44.6551958 59.5406084 54.5788042 59.5406084 54.5788042 49.617 64.5024126 49.617"></polygon>
                <polygon id="Shape" fill="#E34343" points="79.3867832 158.774608 79.3867832 148.851 89.3103916 148.851 89.3103916 138.927392 79.3867832 138.927392 79.3867832 129.004825 69.4642168 129.004825 69.4642168 138.927392 59.5406084 138.927392 59.5406084 148.851 69.4642168 148.851 69.4642168 158.774608"></polygon>
                <polygon id="Shape" fill="#F8AC20" points="253.046804 104.195804 243.123196 104.195804 243.123196 114.119413 233.200629 114.119413 233.200629 124.043021 243.123196 124.043021 243.123196 133.965587 253.046804 133.965587 253.046804 124.043021 262.970413 124.043021 262.970413 114.119413 253.046804 114.119413"></polygon>
            </g>
        </g>
    </g>
</svg>