<?xml version="1.0" encoding="UTF-8" standalone="no"?>
<svg width="208px" height="170px" viewBox="0 0 208 170" version="1.1" xmlns="http://www.w3.org/2000/svg" xmlns:xlink="http://www.w3.org/1999/xlink">
    <!-- Generator: Sketch 41 (35326) - http://www.bohemiancoding.com/sketch -->
    <title>megaphone</title>
    <desc>Created with Sketch.</desc>
    <defs></defs>
    <g id="Design" stroke="none" stroke-width="1" fill="none" fill-rule="evenodd">
        <g id="Home" transform="translate(-970.000000, -1843.000000)" fill="#F17721">
            <g id="VENUE" transform="translate(0.000000, 1598.000000)">
                <g id="megaphone" transform="translate(1068.184896, 344.950457) rotate(-30.000000) translate(-1068.184896, -344.950457) translate(968.184896, 277.950457)">
                    <path d="M140,-1.13686838e-13 C132.646667,-1.13686838e-13 126.666667,5.98 126.666667,13.3333333 L126.666667,17.5566667 L23.1833333,50.17 C22.4366667,44.45 17.5866667,40 11.6666667,40 C5.23333333,40 -3.41060513e-13,45.2333333 -3.41060513e-13,51.6666667 L-3.41060513e-13,81.6666667 C-3.41060513e-13,88.1 5.23333333,93.3333333 11.6666667,93.3333333 C17.5866667,93.3333333 22.4366667,88.8833333 23.1833333,83.1633333 L30.2966667,85.4033333 C29.2433333,86.5566667 28.4,87.93 27.8866667,89.51 C25.96,95.4533333 29.2266667,101.86 35.1766667,103.786667 L73.2266667,116.113333 L73.23,116.113333 C74.3866667,116.486667 75.5566667,116.666667 76.71,116.666667 C81.4933333,116.666667 85.95,113.61 87.5033333,108.82 C88.0733333,107.053333 88.14,105.26 87.86,103.54 L126.666667,115.776667 L126.666667,120 C126.666667,127.353333 132.646667,133.333333 140,133.333333 C147.353333,133.333333 153.333333,127.353333 153.333333,120 L153.333333,13.3333333 C153.333333,5.98 147.353333,-1.13686838e-13 140,-1.13686838e-13 Z M81.16,106.77 C80.3666667,109.22 77.7266667,110.57 75.28,109.773333 L37.23,97.4466667 C34.78,96.6533333 33.43,94.0166667 34.2266667,91.5666667 C35.0233333,89.12 37.6566667,87.7766667 40.1033333,88.5666667 L78.16,100.893333 C80.6066667,101.686667 81.95,104.323333 81.16,106.77 Z M16.6666667,81.6666667 C16.6666667,84.4233333 14.4233333,86.6666667 11.6666667,86.6666667 C8.91,86.6666667 6.66666667,84.4233333 6.66666667,81.6666667 L6.66666667,51.6666667 C6.66666667,48.91 8.91,46.6666667 11.6666667,46.6666667 C14.4233333,46.6666667 16.6666667,48.91 16.6666667,51.6666667 L16.6666667,52.2233333 L16.6666667,81.11 L16.6666667,81.6666667 Z M23.3333333,76.22 L23.3333333,57.1133333 L126.666667,24.5433333 L126.666667,108.786667 L23.3333333,76.22 Z M146.666667,120 C146.666667,123.676667 143.676667,126.666667 140,126.666667 C136.323333,126.666667 133.333333,123.676667 133.333333,120 L133.333333,117.876667 L133.333333,15.4566667 L133.333333,13.3333333 C133.333333,9.65666667 136.323333,6.66666667 140,6.66666667 C143.676667,6.66666667 146.666667,9.65666667 146.666667,13.3333333 L146.666667,120 Z" id="Shape" stroke="#F17721" stroke-width="3"></path>
                    <path d="M183.333333,63.3333333 L180,63.3333333 C178.156667,63.3333333 176.666667,64.8233333 176.666667,66.6666667 C176.666667,68.51 178.156667,70 180,70 L183.333333,70 C185.176667,70 186.666667,68.51 186.666667,66.6666667 C186.666667,64.8233333 185.176667,63.3333333 183.333333,63.3333333 Z" id="Shape"></path>
                    <path d="M166.666667,70 L170,70 C171.843333,70 173.333333,68.51 173.333333,66.6666667 C173.333333,64.8233333 171.843333,63.3333333 170,63.3333333 L166.666667,63.3333333 C164.823333,63.3333333 163.333333,64.8233333 163.333333,66.6666667 C163.333333,68.51 164.823333,70 166.666667,70 Z" id="Shape"></path>
                    <path d="M196.666667,63.3333333 L193.333333,63.3333333 C191.49,63.3333333 190,64.8233333 190,66.6666667 C190,68.51 191.49,70 193.333333,70 L196.666667,70 C198.51,70 200,68.51 200,66.6666667 C200,64.8233333 198.51,63.3333333 196.666667,63.3333333 Z" id="Shape"></path>
                    <path d="M176.093333,21.7866667 C176.946667,21.7866667 177.8,21.46 178.45,20.81 L180.806667,18.4533333 C182.11,17.15 182.11,15.0433333 180.806667,13.74 C179.503333,12.4366667 177.396667,12.4366667 176.093333,13.74 L173.736667,16.0966667 C172.433333,17.4 172.433333,19.5066667 173.736667,20.81 C174.386667,21.46 175.24,21.7866667 176.093333,21.7866667 Z" id="Shape"></path>
                    <path d="M185.523333,12.3566667 C186.376667,12.3566667 187.23,12.03 187.88,11.38 L190.236667,9.02333333 C191.54,7.72 191.54,5.61333333 190.236667,4.31 C188.933333,3.00666667 186.826667,3.00666667 185.523333,4.31 L183.166667,6.66666667 C181.863333,7.97 181.863333,10.0766667 183.166667,11.38 C183.82,12.03 184.67,12.3566667 185.523333,12.3566667 Z" id="Shape"></path>
                    <path d="M166.666667,31.2133333 C167.52,31.2133333 168.373333,30.8866667 169.023333,30.2366667 L171.38,27.88 C172.683333,26.5766667 172.683333,24.47 171.38,23.1666667 C170.076667,21.8633333 167.97,21.8633333 166.666667,23.1666667 L164.31,25.5233333 C163.006667,26.8266667 163.006667,28.9333333 164.31,30.2366667 C164.96,30.89 165.813333,31.2133333 166.666667,31.2133333 Z" id="Shape"></path>
                    <path d="M168.773333,43.6666667 L165.613333,44.72 C163.866667,45.3033333 162.923333,47.19 163.506667,48.9366667 C163.973333,50.3333333 165.27,51.2166667 166.666667,51.2166667 C167.013333,51.2166667 167.373333,51.16 167.72,51.0433333 L170.88,49.99 C172.626667,49.4066667 173.57,47.52 172.986667,45.7733333 C172.403333,44.0266667 170.516667,43.08 168.773333,43.6666667 Z" id="Shape"></path>
                    <path d="M179.316667,47 C179.663333,47 180.023333,46.9433333 180.37,46.8266667 L183.53,45.7733333 C185.276667,45.19 186.22,43.3033333 185.636667,41.5566667 C185.053333,39.81 183.17,38.8633333 181.42,39.45 L178.26,40.5033333 C176.513333,41.0866667 175.57,42.9733333 176.153333,44.72 C176.62,46.1166667 177.92,47 179.316667,47 Z" id="Shape"></path>
                    <path d="M188.803333,40.4966667 C189.27,41.8966667 190.57,42.78 191.966667,42.78 C192.313333,42.78 192.67,42.7233333 193.016667,42.61 L196.176667,41.56 C197.923333,40.9766667 198.87,39.09 198.29,37.3433333 C197.706667,35.5966667 195.816667,34.6566667 194.073333,35.23 L190.913333,36.28 C189.166667,36.8666667 188.223333,38.7533333 188.803333,40.4966667 Z" id="Shape"></path>
                    <path d="M187.88,121.953333 C186.576667,120.65 184.47,120.65 183.166667,121.953333 C181.863333,123.256667 181.863333,125.363333 183.166667,126.666667 L185.523333,129.023333 C186.176667,129.673333 187.026667,130 187.88,130 C188.733333,130 189.586667,129.673333 190.236667,129.023333 C191.54,127.72 191.54,125.613333 190.236667,124.31 L187.88,121.953333 Z" id="Shape"></path>
                    <path d="M178.45,112.523333 C177.146667,111.22 175.04,111.22 173.736667,112.523333 C172.433333,113.826667 172.433333,115.933333 173.736667,117.236667 L176.093333,119.593333 C176.743333,120.243333 177.596667,120.57 178.45,120.57 C179.303333,120.57 180.156667,120.243333 180.806667,119.593333 C182.11,118.29 182.11,116.183333 180.806667,114.88 L178.45,112.523333 Z" id="Shape"></path>
                    <path d="M169.023333,103.096667 C167.72,101.793333 165.613333,101.793333 164.31,103.096667 C163.006667,104.4 163.006667,106.506667 164.31,107.81 L166.666667,110.166667 C167.316667,110.816667 168.17,111.143333 169.023333,111.143333 C169.876667,111.143333 170.73,110.816667 171.38,110.166667 C172.683333,108.863333 172.683333,106.756667 171.38,105.453333 L169.023333,103.096667 Z" id="Shape"></path>
                    <path d="M178.263333,92.83 L181.423333,93.8833333 C181.77,94 182.13,94.0566667 182.476667,94.0566667 C183.873333,94.0566667 185.173333,93.1733333 185.636667,91.7766667 C186.22,90.0333333 185.28,88.1433333 183.53,87.56 L180.37,86.5066667 C178.63,85.9166667 176.736667,86.8666667 176.153333,88.6133333 C175.57,90.36 176.513333,92.2466667 178.263333,92.83 Z" id="Shape"></path>
                    <path d="M170.883333,83.3466667 L167.723333,82.2933333 C165.98,81.7033333 164.09,82.6533333 163.506667,84.4 C162.923333,86.1466667 163.863333,88.0333333 165.613333,88.6166667 L168.773333,89.67 C169.12,89.7866667 169.48,89.8433333 169.826667,89.8433333 C171.223333,89.8433333 172.523333,88.96 172.986667,87.5633333 C173.57,85.8166667 172.63,83.93 170.883333,83.3466667 Z" id="Shape"></path>
                    <path d="M196.18,91.7733333 L193.02,90.7233333 C191.28,90.1466667 189.383333,91.0866667 188.803333,92.8366667 C188.223333,94.58 189.166667,96.47 190.916667,97.0533333 L194.076667,98.1033333 C194.423333,98.2166667 194.78,98.2733333 195.126667,98.2733333 C196.523333,98.2733333 197.826667,97.39 198.29,95.99 C198.87,94.2433333 197.926667,92.3566667 196.18,91.7733333 Z" id="Shape"></path>
                </g>
            </g>
        </g>
    </g>
</svg>