<?xml version="1.0" encoding="UTF-8" standalone="no"?>
<svg width="200px" height="183px" viewBox="0 0 200 183" version="1.1" xmlns="http://www.w3.org/2000/svg" xmlns:xlink="http://www.w3.org/1999/xlink">
    <!-- Generator: Sketch 41 (35326) - http://www.bohemiancoding.com/sketch -->
    <title>network</title>
    <desc>Created with Sketch.</desc>
    <defs></defs>
    <g id="Design" stroke="none" stroke-width="1" fill="none" fill-rule="evenodd">
        <g id="Home" transform="translate(-606.000000, -1832.000000)" fill="#F8AC20">
            <g id="VENUE" transform="translate(0.000000, 1598.000000)">
                <g id="network" transform="translate(606.000000, 234.000000)">
                    <path d="M197.57533,50.4422907 C195.013216,45.6563877 190.740969,42.1559471 185.545374,40.584141 C180.34978,39.0114537 174.852863,39.5577093 170.067841,42.1198238 C165.282819,44.6828194 161.781498,48.9550661 160.209692,54.1506608 C159.162115,57.6114537 159.076652,61.2026432 159.878414,64.630837 L137.935683,76.3806167 C131.261674,67.0105727 120.85815,60.4828194 108.904846,58.9788546 L108.904846,40.2537445 C117.555066,37.9207048 123.940088,30.0105727 123.940088,20.6334802 C123.940088,9.42819383 114.823789,0.311894273 103.618502,0.311894273 C92.4132159,0.311894273 83.2960352,9.42819383 83.2960352,20.6343612 C83.2960352,30.0114537 89.6819383,37.9215859 98.3312775,40.2546256 L98.3312775,58.9779736 C83.0643172,60.8995595 70.3180617,71.0167401 64.6546256,84.7788546 L40.6396476,78.30837 C40.6449339,74.7867841 39.7480176,71.30837 37.9436123,68.1744493 C35.2361233,63.4696035 30.8581498,60.1004405 25.6176211,58.6881057 C14.7947137,55.7718062 3.62378855,62.2044053 0.708370044,73.0237885 C-0.703964758,78.2651982 0.00969162996,83.7427313 2.71718062,88.446696 C5.4246696,93.1506608 9.80264317,96.5207048 15.0431718,97.9330396 C16.8026432,98.4070485 18.5876652,98.6414097 20.3629956,98.6414097 C23.8740088,98.6414097 27.3409692,97.722467 30.4669604,95.9242291 C33.6008811,94.1207048 36.1242291,91.5647577 37.8889868,88.5171806 L61.9048458,94.9885463 C61.645815,96.8748899 61.5004405,98.7964758 61.5004405,100.753304 C61.5004405,110.463436 64.8123348,119.409692 70.354185,126.54185 L52.7462555,144.14978 C44.9806167,139.688106 34.8837004,140.74978 28.2546256,147.377093 C20.3312775,155.300441 20.3312775,168.192952 28.2546256,176.117181 C32.2167401,180.079295 37.4202643,182.059912 42.6246696,182.059912 C47.8281938,182.059912 53.0325991,180.079295 56.9947137,176.117181 C63.6229075,169.488106 64.6845815,159.391189 60.2220264,151.626432 L77.8299559,134.018502 C84.9621145,139.560352 93.907489,142.872247 103.618502,142.872247 C113.329515,142.872247 122.27489,139.560352 129.407048,134.018502 L147.014978,151.626432 C142.553304,159.39207 143.614097,169.488987 150.242291,176.117181 C154.204405,180.079295 159.40793,182.059912 164.612335,182.059912 C169.81674,182.059912 175.020264,180.078414 178.982379,176.117181 C186.905727,168.193833 186.905727,155.301322 178.982379,147.377093 C172.354185,140.748899 162.256388,139.688106 154.49163,144.14978 L136.8837,126.54185 C142.425551,119.409692 145.737445,110.464317 145.737445,100.753304 C145.737445,95.4484581 144.74185,90.3735683 142.943612,85.6933921 L164.870485,73.9524229 C167.279295,76.5207048 170.315419,78.4396476 173.777093,79.4872247 C175.722467,80.0757709 177.711013,80.3674009 179.688106,80.3674009 C182.990308,80.3674009 186.261674,79.553304 189.254626,77.9506608 C194.040529,75.3885463 197.540969,71.1162996 199.112775,65.9207048 C200.684581,60.7251101 200.137445,55.2273128 197.57533,50.4422907 L197.57533,50.4422907 Z M184.261674,68.6290749 C181.96652,69.8590308 179.329515,70.1207048 176.837004,69.3656388 C174.344493,68.6123348 172.295154,66.9321586 171.066079,64.6361233 C169.836123,62.3409692 169.57533,59.7030837 170.329515,57.2105727 C171.082819,54.7180617 172.762996,52.6687225 175.059031,51.4396476 C176.495154,50.6704846 178.064317,50.2801762 179.648458,50.2801762 C180.596476,50.2801762 181.550661,50.4202643 182.4837,50.7022026 C184.976211,51.4555066 187.025551,53.1356828 188.254626,55.4317181 C189.484581,57.7268722 189.745374,60.3638767 188.991189,62.8563877 C188.237885,65.3506608 186.557709,67.4 184.261674,68.6290749 L184.261674,68.6290749 Z M135.162996,100.752423 C135.162996,118.146256 121.011454,132.297797 103.617621,132.297797 C86.2237885,132.297797 72.0722467,118.146256 72.0722467,100.752423 C72.0722467,83.3585903 86.2237885,69.2070485 103.617621,69.2070485 C121.011454,69.2070485 135.162996,83.3585903 135.162996,100.752423 Z M93.8687225,20.6343612 C93.8687225,15.2581498 98.2422907,10.8854626 103.617621,10.8854626 C108.992952,10.8854626 113.36652,15.2590308 113.36652,20.6343612 C113.36652,26.0096916 108.992952,30.3832599 103.617621,30.3832599 C98.2422907,30.3832599 93.8687225,26.0096916 93.8687225,20.6343612 Z M17.7938326,87.7242291 C15.2792952,87.046696 13.1797357,85.4299559 11.8810573,83.1735683 C10.5814978,80.9162996 10.2396476,78.2889868 10.9171806,75.7744493 C12.3154185,70.5832599 17.676652,67.4986784 22.8669604,68.8969163 C25.3814978,69.5744493 27.4810573,71.1903084 28.7806167,73.4475771 C30.0792952,75.7048458 30.4211454,78.3321586 29.7436123,80.846696 C28.3453744,86.0378855 22.9859031,89.122467 17.7938326,87.7242291 Z M49.5180617,168.639648 C45.7180617,172.440529 39.5321586,172.440529 35.7303965,168.639648 C31.9295154,164.838767 31.9295154,158.653744 35.7303965,154.851982 C37.630837,152.951542 40.1277533,152.001762 42.6246696,152.001762 C45.1207048,152.001762 47.6176211,152.952423 49.5180617,154.851982 C53.3189427,158.653744 53.3189427,164.838767 49.5180617,168.639648 Z M171.504846,154.851982 C175.305727,158.652863 175.305727,164.837885 171.504846,168.639648 C167.704846,172.440529 161.518943,172.440529 157.717181,168.639648 C153.9163,164.838767 153.9163,158.653744 157.717181,154.851982 C159.617621,152.951542 162.114537,152.001762 164.611454,152.001762 C167.107489,152.001762 169.604405,152.951542 171.504846,154.851982 Z" id="Shape"></path>
                </g>
            </g>
        </g>
    </g>
</svg>