<?xml version="1.0" encoding="UTF-8" standalone="no"?>
<svg width="224px" height="188px" viewBox="0 0 224 188" version="1.1" xmlns="http://www.w3.org/2000/svg" xmlns:xlink="http://www.w3.org/1999/xlink">
    <!-- Generator: Sketch 41 (35326) - http://www.bohemiancoding.com/sketch -->
    <title>baseball</title>
    <desc>Created with Sketch.</desc>
    <defs></defs>
    <g id="Design" stroke="none" stroke-width="1" fill="none" fill-rule="evenodd">
        <g id="Pitches" transform="translate(-612.000000, -160.000000)" fill="#F8AC20">
            <g id="baseball" transform="translate(724.000000, 254.000000) rotate(-180.000000) translate(-724.000000, -254.000000) translate(612.000000, 160.000000)">
                <path d="M110.039426,30.0086372 C111.175842,30.0086372 112.312257,29.5767305 113.179366,28.7099589 L133.273793,8.62334161 C135.00801,6.89275676 135.00801,4.07944703 133.273793,2.34886217 C131.539576,0.615319058 128.731091,0.615319058 126.996874,2.34886217 L106.902446,22.4354795 C105.168229,24.1660644 105.168229,26.9793741 106.902446,28.7099589 C107.766596,29.5737722 108.903011,30.0086372 110.039426,30.0086372 Z" id="Shape"></path>
                <path d="M129.453189,51.2489777 C130.320297,52.1157493 131.456713,52.5476559 132.593128,52.5476559 C133.729543,52.5476559 134.865959,52.1157493 135.733067,51.2489777 L158.402186,28.5886701 C160.136403,26.8580852 160.136403,24.0447755 158.402186,22.3141907 C156.667969,20.5806475 153.859484,20.5806475 152.125267,22.3141907 L129.456148,44.9744983 C127.718971,46.7080414 127.718971,49.5183929 129.453189,51.2489777 L129.453189,51.2489777 Z" id="Shape"></path>
                <path d="M166.179528,18.9743098 C167.315944,18.9743098 168.452359,18.5424032 169.319468,17.6756316 L179.115131,7.88377543 C180.849348,6.15319058 180.849348,3.33988085 179.115131,1.609296 C177.380914,-0.124247118 174.572429,-0.124247118 172.838212,1.609296 L163.042549,11.4011522 C161.308331,13.131737 161.308331,15.9450468 163.042549,17.6756316 C163.909657,18.5394449 165.043113,18.9743098 166.179528,18.9743098 Z" id="Shape"></path>
                <path d="M222.67476,3.14463538 C220.940543,1.41109226 218.132058,1.41109226 216.397841,3.14463538 L152.000971,67.5164753 C150.266754,69.2470602 150.266754,72.0603699 152.000971,73.7909548 C152.86808,74.6577263 154.004495,75.089633 155.140911,75.089633 C156.277326,75.089633 157.413741,74.6577263 158.28085,73.7909548 L222.67772,9.41911482 C224.408977,7.68852996 224.408977,4.8781785 222.67476,3.14463538 L222.67476,3.14463538 Z" id="Shape"></path>
                <path d="M139.778587,112.559014 C139.775628,112.535348 139.772669,112.511681 139.769709,112.488015 C138.668807,97.3121174 132.78549,83.2692349 122.794505,71.9479559 C121.865249,70.8386066 120.859048,69.7499652 119.63089,68.5252436 C107.837622,56.7365587 92.2563018,49.5893912 75.7250097,48.3617114 C75.7102127,48.3587531 75.6954156,48.3587531 75.6806185,48.3557948 C75.6095926,48.3498783 75.541526,48.335087 75.4705001,48.3321287 C56.3201258,46.8973703 37.2792498,53.5120502 23.3137706,66.3893765 C22.5561603,67.0490695 21.7985501,67.7708861 21.1090064,68.4601618 C6.77360028,82.7574551 -0.598302422,102.565996 0.875486235,122.788693 C0.881405065,122.86265 0.896202139,122.933648 0.899161554,123.007605 C0.902120969,123.040146 0.905080384,123.072686 0.910999214,123.102269 C2.11844052,139.606428 9.23287412,155.1669 20.9876704,166.949669 C22.2395029,168.198056 23.3285676,169.203866 24.3170122,170.026264 C35.7699482,180.181987 49.9100329,186.116266 65.1954113,187.19899 C66.926669,187.326196 68.6549674,187.391278 70.3773469,187.391278 C88.734598,187.388319 106.42894,180.113946 119.693038,166.884587 C119.98898,166.591719 120.281962,166.289976 120.551268,165.961608 C134.185293,151.812228 141.199107,132.435594 139.799303,112.772009 C139.796344,112.698052 139.781547,112.630012 139.778587,112.559014 L139.778587,112.559014 Z M27.3859256,74.7375995 C27.9393362,74.1873622 28.5400974,73.6075424 29.2385193,72.9981398 C40.3955138,62.7122534 55.1541163,57.0146356 70.3092803,57.0146356 C70.4898047,57.0146356 70.670329,57.0323852 70.8508533,57.0353435 C70.8952445,61.2479124 70.4957235,65.4397735 69.6522902,69.5813441 L67.9269513,69.255935 C65.5120687,68.7974039 63.1918873,70.3771173 62.7361374,72.7851448 C62.2774281,75.1931722 63.8577557,77.51541 66.2667195,77.9739411 L67.2610829,78.1603117 C65.9204679,81.8581426 64.1892102,85.405102 62.1235385,88.8011899 L60.7414917,87.9876671 C58.6343883,86.7422376 55.9117265,87.4403881 54.6628534,89.5525891 C53.4169397,91.6618318 54.1153616,94.3834354 56.2283839,95.6288648 L57.0037506,96.0844376 C55.7578369,97.6049856 54.4468161,99.0811597 53.041094,100.471544 C52.7333148,100.779204 52.4077792,101.110529 51.907638,101.545394 C50.6794808,102.710951 49.4010136,103.805508 48.0899927,104.855692 L47.0897105,103.630971 C45.5330582,101.737681 42.7334516,101.465521 40.8423855,103.024527 C38.9483599,104.580574 38.6790531,107.379092 40.2357054,109.269423 L40.7595218,109.911367 C37.3532352,111.920029 33.757546,113.552991 30.0138861,114.836878 L29.4959884,113.36662 C28.6762305,111.059173 26.1400119,109.846285 23.8257494,110.671641 C21.5144463,111.488122 20.307005,114.026313 21.1267629,116.336718 L21.4079073,117.138407 C17.5133172,117.877974 13.5595388,118.209299 9.5850445,118.176758 C9.46370849,101.924052 15.8205319,86.2748318 27.3859256,74.7375995 L27.3859256,74.7375995 Z M27.2705084,160.675189 C18.1318349,151.51936 12.2218832,139.742508 10.2953041,127.087052 C15.0392463,127.07226 19.7506349,126.566397 24.3850788,125.593128 L25.2936192,128.172735 C25.9328528,130.000942 27.6493135,131.148749 29.4871102,131.148749 C29.9724543,131.148749 30.4666766,131.071834 30.9490612,130.900255 C33.2633237,130.095607 34.4855621,127.563332 33.6776418,125.249969 L32.958504,123.205808 C37.6758114,121.581721 42.1741222,119.436979 46.4120044,116.821873 L48.1787752,118.981406 C49.054762,120.058215 50.3361887,120.620285 51.6264936,120.620285 C52.6119788,120.620285 53.6004234,120.294876 54.4231408,119.626308 C56.3260446,118.079136 56.6131078,115.283575 55.0653338,113.38437 L53.7128812,111.7307 C55.1629945,110.568102 56.5627978,109.364088 57.8560621,108.13345 C58.3562033,107.704501 58.8563444,107.210471 59.3032161,106.763773 C61.2475517,104.840901 63.0172819,102.758283 64.6952701,100.622416 L67.0657615,102.018717 C67.7730617,102.435832 68.5484284,102.634036 69.3149169,102.634036 C70.8360562,102.634036 72.3157637,101.853054 73.1414405,100.450836 C74.3873542,98.3415935 73.6859728,95.61999 71.5729505,94.3745606 L69.7706668,93.3125435 C72.3601549,89.0408093 74.4495019,84.5235391 76.0446266,79.8198982 L78.6489117,80.3109702 C78.9241373,80.3642189 79.2023223,80.3878851 79.4716291,80.3878851 C81.5668949,80.3878851 83.4283669,78.8998779 83.8308474,76.7669691 C84.2836379,74.3589416 82.6973914,72.0396621 80.2884276,71.5870476 L78.3766456,71.2261393 C79.2763077,66.7798674 79.7468547,62.2803468 79.7498141,57.7512435 C92.3983537,59.70074 104.185704,65.635019 113.353971,74.799723 C114.295065,75.7374929 115.156255,76.6515967 116.061836,77.7313633 C123.788868,86.4907851 128.692619,97.0310823 130.40612,108.467734 C125.940363,108.464775 121.507159,108.914432 117.139063,109.778245 L116.828324,108.121617 C116.378493,105.719506 114.07015,104.136834 111.649348,104.574657 C109.240384,105.024314 107.648219,107.343593 108.09805,109.751621 L108.530125,112.062025 C103.75067,113.641739 99.1783734,115.721399 94.8694652,118.298047 L93.9993972,116.824831 C92.7505241,114.715589 90.0337811,114.017438 87.9207589,115.259909 C85.8077366,116.505339 85.1063552,119.226942 86.3522689,121.339143 L87.5419537,123.353722 C85.3993373,125.034016 83.3159092,126.797142 81.4189242,128.693389 C80.761934,129.311667 80.1434163,129.935861 79.7143011,130.459473 C78.5423728,131.710819 77.4089169,133.030205 76.3109739,134.391007 L75.020669,133.337865 C73.1207246,131.784776 70.3240774,132.071728 68.7763034,133.967975 C67.2255699,135.867181 67.5067144,138.662741 69.4066588,140.212872 L71.2059831,141.680171 C68.5573067,145.981488 66.3969338,150.528341 64.7722149,155.285231 L63.1593338,154.717244 C60.8480307,153.897805 58.311812,155.113651 57.4950135,157.421098 C56.678215,159.731503 57.8915751,162.269694 60.2028782,163.083217 L62.4224394,163.864198 C61.4606296,168.431759 60.9456914,173.091026 60.9338537,177.803542 C49.4868366,176.06704 38.9365222,171.126738 30.1085873,163.305086 C29.1171833,162.470856 28.2056835,161.610001 27.2705084,160.675189 L27.2705084,160.675189 Z M114.01688,159.953373 C113.874828,160.098327 113.794924,160.187075 113.673588,160.352738 L113.268148,160.760979 C101.690917,172.307086 86.0563274,178.649605 69.835774,178.501692 C69.800261,174.564242 70.1228372,170.662291 70.8478939,166.825421 L72.0849293,167.260286 C72.5702734,167.431866 73.0644957,167.508781 73.5527992,167.508781 C75.3876364,167.508781 77.1011377,166.363932 77.7433308,164.538683 C78.5542105,162.22532 77.3349315,159.693045 75.020669,158.882481 L73.1503187,158.225746 C74.4435831,154.430292 76.0949366,150.782752 78.1280547,147.327499 L79.1194587,148.135105 C79.9451355,148.812548 80.9394989,149.137957 81.9249841,149.137957 C83.2123296,149.137957 84.4878375,148.581803 85.3667837,147.507953 C86.9175172,145.608747 86.6363728,142.813187 84.7393878,141.266014 L83.1975326,140.005794 C84.191896,138.769239 85.2365695,137.553392 86.3641066,136.34642 C86.7281146,135.914514 87.1128386,135.535856 87.6159391,135.056617 C89.0423771,133.633691 90.5457599,132.305431 92.093534,131.039293 L92.7564429,132.163434 C93.5850791,133.565651 95.0647866,134.343675 96.5829665,134.343675 C97.349455,134.343675 98.1248217,134.145471 98.8350813,133.728356 C100.948104,132.482926 101.649485,129.761323 100.403571,127.649122 L99.3914513,125.933328 C102.815494,123.880293 106.414143,122.164499 110.184438,120.836238 L110.418231,122.084626 C110.817753,124.217535 112.682184,125.705542 114.77745,125.705542 C115.046757,125.705542 115.324942,125.681876 115.600167,125.631585 C118.009131,125.178971 119.598337,122.859691 119.145546,120.451664 L118.781538,118.499209 C122.835937,117.691603 126.952483,117.312945 131.092704,117.360277 C131.172609,133.21066 125.079173,148.55222 114.01688,159.953373 L114.01688,159.953373 Z" id="Shape"></path>
            </g>
        </g>
    </g>
</svg>