<?xml version="1.0" encoding="UTF-8" standalone="no"?>
<svg width="226px" height="195px" viewBox="0 0 226 195" version="1.1" xmlns="http://www.w3.org/2000/svg" xmlns:xlink="http://www.w3.org/1999/xlink">
    <!-- Generator: Sketch 41 (35326) - http://www.bohemiancoding.com/sketch -->
    <title>Shape</title>
    <desc>Created with Sketch.</desc>
    <defs></defs>
    <g id="Design" stroke="none" stroke-width="1" fill="none" fill-rule="evenodd">
        <g id="Contact-US" transform="translate(-607.000000, -215.000000)" fill="#F17721">
            <path d="M607.019892,312.360273 C607.296468,317.015964 610.384896,320.93412 614.856203,322.270902 L697.644527,347.301003 L700.68686,404.367787 C700.825148,406.626489 702.346314,408.608615 704.512824,409.34615 C705.112071,409.57663 705.757414,409.668821 706.356662,409.668821 C707.97002,409.668821 709.491186,409.023478 710.597489,407.778888 L739.868416,375.373436 L781.35477,404.091212 C783.198608,405.381898 785.365118,406.073337 787.623819,406.073337 C792.832662,406.073337 797.350065,402.385662 798.456367,397.222915 L832.890041,221.735638 C833.304905,219.707416 832.521274,217.587003 830.954011,216.296316 C829.340653,214.959534 827.174144,214.636862 825.238114,215.420493 L613.657709,301.527725 C609.370785,303.463755 606.743316,307.704583 607.019892,312.360273 Z M711.196736,390.216331 L709.306802,354.215395 L730.510939,368.873907 L711.196736,390.216331 Z M787.439436,394.595446 L711.934271,342.32264 L817.816666,239.897442 L787.439436,394.595446 Z M806.200487,235.380039 L701.516587,336.652839 L618.820455,311.668834 L806.200487,235.380039 Z" id="Shape"></path>
        </g>
    </g>
</svg>