<?xml version="1.0" encoding="UTF-8" standalone="no"?>
<svg width="256px" height="256px" viewBox="0 0 256 256" version="1.1" xmlns="http://www.w3.org/2000/svg" xmlns:xlink="http://www.w3.org/1999/xlink">
    <!-- Generator: Sketch 41 (35326) - http://www.bohemiancoding.com/sketch -->
    <title>rocket (1)</title>
    <desc>Created with Sketch.</desc>
    <defs></defs>
    <g id="Design" stroke="none" stroke-width="1" fill="none" fill-rule="evenodd">
        <g id="Sponsors" transform="translate(-592.000000, -184.000000)" fill="#A55A99">
            <g id="rocket-(1)" transform="translate(592.000000, 184.000000)">
                <path d="M34.7265,185.5455 C32.3255,183.1455 28.4325,183.1455 26.031,185.5455 L13.4035,198.173 C11.0025,200.574 11.0025,204.467 13.4035,206.8685 C14.604,208.0685 16.1775,208.6695 17.751,208.6695 C19.325,208.6695 20.899,208.069 22.099,206.8685 L34.7265,194.241 C37.1275,191.84 37.1275,187.947 34.7265,185.5455 Z" id="Shape"></path>
                <path d="M52.588,203.407 C50.188,201.007 46.294,201.007 43.8935,203.407 L1.8005,245.5005 C-0.6005,247.9015 -0.6005,251.7945 1.8005,254.196 C3.0005,255.396 4.5745,255.997 6.148,255.997 C7.7215,255.997 9.295,255.3965 10.4955,254.196 L52.588,212.1025 C54.9895,209.701 54.989,205.808 52.588,203.407 Z" id="Shape"></path>
                <path d="M70.4505,221.27 C68.049,218.869 64.1565,218.8685 61.756,221.2695 L40.7095,242.316 C38.3085,244.717 38.308,248.61 40.7095,251.0115 C41.91,252.2115 43.4835,252.8125 45.057,252.8125 C46.6305,252.8125 48.204,252.212 49.4045,251.0115 L70.451,229.966 C72.851,227.5645 72.852,223.6715 70.4505,221.27 Z" id="Shape"></path>
                <path d="M186.3985,69.6005 C179.2385,62.4405 169.718,58.4965 159.5915,58.4965 C149.4645,58.4965 139.9445,62.44 132.7835,69.6005 C125.6235,76.7605 121.6795,86.2815 121.6795,96.4085 C121.6795,106.5355 125.6235,116.0555 132.7835,123.2165 C139.9435,130.3765 149.464,134.32 159.5915,134.32 C169.718,134.32 179.238,130.3765 186.3985,123.2165 C201.18,108.4335 201.18,84.3825 186.3985,69.6005 Z M177.703,114.521 C172.8655,119.359 166.433,122.0235 159.591,122.0235 C152.7485,122.0235 146.316,119.359 141.4785,114.521 C136.64,109.683 133.976,103.251 133.976,96.4085 C133.976,89.566 136.64,83.134 141.4785,78.296 C146.316,73.458 152.7485,70.7935 159.591,70.7935 C166.4325,70.7935 172.8655,73.458 177.703,78.296 C187.69,88.283 187.69,104.534 177.703,114.521 Z" id="Shape"></path>
                <path d="M251.7145,8.64 C251.1465,6.515 249.487,4.856 247.362,4.2875 C226.337,-1.333 204.08,-1.4255 182.9985,4.0195 C179.7125,4.8685 176.4735,5.866 173.277,6.975 C173.0005,7.0505 172.728,7.1455 172.462,7.26 C154.908,13.4895 138.8515,23.5815 125.546,36.849 C125.538,36.8565 125.5305,36.864 125.5235,36.871 C125.489,36.9055 125.4535,36.938 125.419,36.9725 C125.3625,37.029 125.314,37.09 125.2605,37.1475 C125.209,37.2035 125.1535,37.2545 125.103,37.313 L106.271,59.2305 C76.646,58.9035 47.8555,70.609 26.864,91.6005 C20.0385,98.426 14.149,106.0755 9.3595,114.3365 C8.393,116.0035 8.264,118.027 9.011,119.8035 C9.758,121.5805 11.2945,122.9035 13.1615,123.378 L47.335,132.0775 L40.6485,150.2365 C37.3465,159.205 39.5795,169.366 46.337,176.1235 L79.8795,209.666 C84.564,214.3495 90.882,216.86 97.306,216.86 C100.15,216.86 103.015,216.3675 105.7675,215.3545 L123.928,208.668 L132.629,242.843 C133.1035,244.71 134.4275,246.247 136.2035,246.994 C136.9675,247.315 137.7785,247.474 138.5865,247.474 C139.6555,247.474 140.721,247.1955 141.6705,246.6445 C149.93,241.8555 157.579,235.9665 164.4065,229.14 C185.3995,208.147 197.0995,179.352 196.776,149.7285 L218.691,130.8985 C218.748,130.8495 218.798,130.795 218.8535,130.744 C218.9125,130.6895 218.975,130.6395 219.0325,130.5825 C219.0675,130.5475 219.1,130.511 219.135,130.477 C219.1415,130.4695 219.149,130.463 219.156,130.4555 C232.4235,117.1505 242.5155,101.095 248.745,83.5415 C248.858,83.274 248.954,83.0005 249.0295,82.7225 C250.1385,79.5275 251.136,76.2885 251.9845,73.003 C257.428,51.922 257.335,29.6655 251.7145,8.64 Z M24.4295,113.5585 C27.726,108.8435 31.4515,104.4035 35.559,100.2955 C51.639,84.2155 72.868,74.2775 95.2835,72.019 L53.282,120.9035 L24.4295,113.5585 Z M52.186,154.4855 L57.9085,138.945 L65.8395,146.876 L53.852,166.0605 C51.413,162.7665 50.7455,158.399 52.186,154.4855 Z M62.7025,175.101 L74.7635,155.7995 L83.136,164.1715 L67.4545,179.8525 L62.7025,175.101 Z M76.149,188.5475 L91.8305,172.8665 L100.2025,181.2385 L80.901,193.2995 L76.149,188.5475 Z M101.5165,203.816 C97.6025,205.256 93.236,204.589 89.942,202.15 L109.126,190.1625 L117.057,198.0935 L101.5165,203.816 Z M155.7095,220.446 C151.6015,224.5535 147.161,228.278 142.4465,231.5755 L135.1,202.7205 L183.986,160.717 C181.729,183.132 171.789,204.3645 155.7095,220.446 Z M210.465,121.754 L128.5175,192.164 L63.8385,127.485 L113.5785,69.5945 C113.627,69.541 113.673,69.485 113.72,69.4295 L134.248,45.538 C145.4365,34.3865 158.7755,25.725 173.3495,20.0475 L235.9545,82.653 C230.278,97.227 221.6165,110.566 210.465,121.754 Z M240.1835,69.492 L186.5115,15.819 C204.2555,11.3105 222.906,11.134 240.7075,15.2945 C244.868,33.0955 244.692,51.7465 240.1835,69.492 Z" id="Shape"></path>
            </g>
        </g>
    </g>
</svg>