<?xml version="1.0" encoding="UTF-8" standalone="no"?>
<svg width="849px" height="241px" viewBox="0 0 849 241" version="1.1" xmlns="http://www.w3.org/2000/svg" xmlns:xlink="http://www.w3.org/1999/xlink">
    <!-- Generator: Sketch 41 (35326) - http://www.bohemiancoding.com/sketch -->
    <title>Layer_1</title>
    <desc>Created with Sketch.</desc>
    <defs></defs>
    <g id="Page-1" stroke="none" stroke-width="1" fill="none" fill-rule="evenodd">
        <g id="Layer_1" fill="#FFFFFF">
            <g id="Group">
                <g transform="translate(228.000000, 25.000000)" id="Shape">
                    <g transform="translate(1.000000, 0.000000)">
                        <polygon points="0.4 3.5 15.9 3.5 51.6 50.4 51.6 3.5 68.1 3.5 68.1 79.7 53.8 79.7 17 31.2 17 79.6 0.5 79.6 0.5 3.5"></polygon>
                        <path d="M72.3,62.9 L72.3,62.7 C72.3,50 82,44.1 95.8,44.1 C101.7,44.1 105.9,45.1 110.1,46.5 L110.1,45.5 C110.1,38.6 105.9,34.8 97.6,34.8 C91.3,34.8 86.8,36 81.5,38 L77.4,25.4 C83.8,22.6 90.1,20.7 100,20.7 C109,20.7 115.6,23.1 119.7,27.2 C124,31.6 126,38 126,45.8 L126,79.6 L110,79.6 L110,73.3 C106,77.8 100.4,80.7 92.4,80.7 C81.4,80.8 72.3,74.4 72.3,62.9 Z M110.3,59.1 L110.3,56.2 C107.5,54.9 103.8,54 99.7,54 C92.6,54 88.3,56.8 88.3,62.1 L88.3,62.3 C88.3,66.8 92,69.4 97.3,69.4 C105.1,69.3 110.3,65.1 110.3,59.1 Z"></path>
                        <path d="M129.4,71.9 L136.5,61 C142.8,65.6 149.5,68 154.9,68 C159.7,68 161.9,66.3 161.9,63.6 L161.9,63.4 C161.9,59.8 156.2,58.6 149.8,56.7 C141.6,54.3 132.4,50.5 132.4,39.2 L132.4,39 C132.4,27.1 142,20.5 153.7,20.5 C161.1,20.5 169.2,23 175.5,27.2 L169.2,38.6 C163.4,35.2 157.7,33.2 153.4,33.2 C149.4,33.2 147.3,34.9 147.3,37.2 L147.3,37.4 C147.3,40.7 152.9,42.2 159.2,44.4 C167.4,47.1 176.8,51 176.8,61.7 L176.8,61.9 C176.8,74.9 167.1,80.7 154.5,80.7 C146.2,80.8 137.1,78 129.4,71.9 Z"></path>
                        <path d="M181.2,0.2 L197.7,0.2 L197.7,29.6 C201.5,24.7 206.4,20.2 214.8,20.2 C227.3,20.2 234.6,28.5 234.6,41.9 L234.6,79.7 L218.1,79.7 L218.1,47.1 C218.1,39.3 214.4,35.2 208.1,35.2 C201.8,35.2 197.8,39.2 197.8,47.1 L197.8,79.6 L181.3,79.6 L181.3,0.2 L181.2,0.2 Z"></path>
                        <polygon points="234.6 21.3 252.1 21.3 265.2 60.4 278.4 21.3 295.6 21.3 272.6 80.1 257.6 80.1"></polygon>
                        <path d="M298.4,0.2 L315.8,0.2 L315.8,14.9 L298.4,14.9 L298.4,0.2 Z M298.8,21.3 L315.3,21.3 L315.3,79.6 L298.8,79.6 L298.8,21.3 Z"></path>
                        <polygon points="322.9 0.2 339.4 0.2 339.4 79.6 322.9 79.6"></polygon>
                        <polygon points="346.9 0.2 363.4 0.2 363.4 79.6 346.9 79.6"></polygon>
                        <path d="M367.4,50.8 L367.4,50.6 C367.4,33.9 379.3,20.2 396.2,20.2 C415.7,20.2 424.6,35.3 424.6,51.9 C424.6,53.2 424.5,54.7 424.4,56.3 L383.8,56.3 C385.4,63.8 390.7,67.7 398.1,67.7 C403.7,67.7 407.7,66 412.2,61.7 L421.7,70.1 C416.3,76.8 408.4,81 397.9,81 C380.3,81 367.4,68.7 367.4,50.8 Z M408.5,45.9 C407.5,38.5 403.2,33.5 396.2,33.5 C389.3,33.5 384.9,38.4 383.6,45.9 L408.5,45.9 Z"></path>
                    </g>
                    <g transform="translate(0.000000, 99.000000)">
                        <g>
                            <path d="M175.2,55 C175.2,45.3 183,40.6 191.8,40.2 L191.8,25.8 C177.1,26.3 174.5,35 174.5,35 L174.5,25.9 L157.1,25.9 L157.1,80.8 L175.2,80.8 L175.2,55 L175.2,55 Z"></path>
                            <path d="M40.7,81.1 C44.3,80.1 47.5,78.5 50.3,76.4 C53.1,74.3 55.3,71.6 57,68.3 C58.7,65 59.5,61.1 59.5,56.7 C59.5,52.8 58.7,49.5 57.2,46.9 C55.7,44.3 53.7,42.1 51.4,40.3 C49,38.5 46.4,37.1 43.6,36.1 C40.7,35 38,34.1 35.3,33.2 C33.5,32.6 31.8,32 30.3,31.5 C28.8,30.9 27.6,30.3 26.5,29.7 C25.4,29 24.6,28.3 24.1,27.4 C23.5,26.5 23.3,25.4 23.3,24.1 C23.3,22.6 23.6,21.3 24.3,20.3 C25,19.3 25.9,18.5 26.9,17.9 C27.9,17.3 29.1,16.9 30.4,16.6 C31.7,16.4 33,16.3 34.2,16.3 C36.6,16.3 39.1,16.9 41.8,18.1 C44.4,19.3 46.5,21 48.1,23 L60.1,10.3 C56.6,7.1 52.6,4.7 48,3.1 C43.4,1.5 38.9,0.7 34.5,0.7 C30.8,0.7 27.2,1.2 23.6,2.1 C20,3 16.8,4.5 13.9,6.5 C11,8.5 8.7,11 7,14.1 C5.2,17.2 4.4,20.9 4.4,25.2 C4.4,28.7 5,31.7 6.1,34.2 C7.2,36.7 8.7,38.8 10.6,40.5 C12.5,42.2 14.6,43.6 17,44.7 C19.4,45.8 21.8,46.8 24.3,47.6 C26.9,48.4 29.2,49.2 31.2,49.9 C33.2,50.6 34.9,51.4 36.3,52.2 C37.7,53 38.7,54 39.4,55 C40.1,56 40.5,57.3 40.5,58.7 C40.5,60.2 40.2,61.6 39.6,62.7 C39,63.8 38.2,64.7 37.2,65.3 C36.2,66 35,66.4 33.7,66.7 C32.4,67 31,67.1 29.6,67.1 C26.5,67.1 23.4,66.3 20.3,64.7 C17.2,63.1 14.7,61.2 12.7,58.8 L0.3,71.4 C3.8,75 8.1,77.8 13.3,79.7 C18.5,81.6 23.9,82.6 29.5,82.6 C33.4,82.7 37.1,82.2 40.7,81.1"></path>
                            <path d="M197,70.5 C197.7,72.9 198.7,75 200.3,76.7 C201.8,78.4 203.8,79.8 206.3,80.7 C208.8,81.6 211.9,82.1 215.6,82.1 C216.8,82.1 218.1,82 219.3,81.9 L219.3,81.9 C222.5,81.7 226.9,80.6 231,79.3 C228,75 225.8,67.2 225.8,67.2 C225.1,67.5 224.3,67.7 223.3,67.9 C222.3,68.1 221.4,68.1 220.5,68.1 C217.9,68.1 216.1,67.5 215.2,66.2 C214.2,64.9 213.7,63 213.7,60.4 L213.7,39.4 L225.3,39.4 L225.3,25.9 L213.7,25.9 L213.7,11.5 L195.9,11.5 L196,62.6 C196,65.4 196.3,68.1 197,70.5"></path>
                            <path d="M234.4,75.1 C236,77.2 238,78.9 240.6,80.2 C243.1,81.5 246.2,82.2 249.9,82.2 C251.8,82.2 253.6,81.9 255.4,81.4 C257.1,80.9 258.7,80.2 260.1,79.4 C261.5,78.6 262.8,77.6 263.9,76.5 C265,75.4 265.8,74.2 266.5,73 L266.7,73 L266.7,80.6 L284,80.6 L284,25.7 L266,25.7 L266,55.4 C266,58.6 265.2,61.3 263.5,63.7 C261.8,66.1 259.4,67.2 256.3,67.2 C254.6,67.2 253.3,66.9 252.2,66.3 C251.2,65.7 250.3,64.8 249.7,63.7 C249.1,62.6 248.7,61.3 248.4,59.9 C248.2,58.5 248.1,57 248.1,55.5 L248.1,25.7 L229.9,25.7 L229.9,59.7 C229.9,62.5 230.2,65.2 230.9,67.9 C231.6,70.6 232.8,73 234.4,75.1"></path>
                            <path d="M307.8,74.3 L308,74.6 C309.7,77 312,78.8 315.1,80.2 C318.1,81.6 321.3,82.2 324.7,82.2 C328.8,82.2 332.5,81.4 335.7,79.8 C338.9,78.2 341.7,76 343.9,73.3 C346.1,70.6 347.9,67.5 349,64 C350.2,60.5 350.8,56.8 350.8,53 C350.8,49.2 350.2,45.5 349,42 C347.8,38.5 346.1,35.4 343.8,32.8 C341.6,30.2 338.8,28.1 335.6,26.5 C332.4,25 328.8,24.2 324.8,24.2 C320.8,24.2 317.2,25 314.3,26.7 C311.3,28.4 309,30.3 307.3,32.5 L307,32.9 L307,25.8 L289.8,25.8 L289.8,107.2 L307.9,107.2 L307.9,74.3 L307.8,74.3 Z M308.1,47.9 C308.7,46.2 309.6,44.7 310.7,43.4 C311.8,42.1 313.2,41 314.8,40.2 C316.4,39.4 318.3,39 320.3,39 C322.4,39 324.3,39.4 325.9,40.2 C327.5,41 328.9,42.1 329.9,43.3 C331,44.6 331.8,46.1 332.3,47.8 C332.9,49.5 333.1,51.2 333.1,53 C333.1,54.8 332.8,56.5 332.3,58.2 C331.8,59.9 330.9,61.5 329.9,62.8 C328.8,64.1 327.5,65.2 325.9,66 C324.3,66.8 322.4,67.2 320.3,67.2 C318.2,67.2 316.4,66.8 314.8,66 C313.2,65.2 311.8,64.1 310.7,62.8 C309.6,61.5 308.7,60 308.1,58.3 C307.5,56.6 307.2,54.9 307.2,53.1 C307.1,51.4 307.5,49.6 308.1,47.9 L308.1,47.9 Z"></path>
                            <path d="M57.7,39.2 L66.5,39.2 L66.5,62.4 C66.5,65.3 66.8,68 67.5,70.4 C68.2,72.8 69.2,74.9 70.8,76.6 C72.3,78.3 74.3,79.7 76.8,80.6 C79.3,81.5 82.4,82 86.1,82 C88,82 89.9,81.8 91.8,81.5 C93.5,81.2 95.9,80.5 97.3,80 C95,76.6 93.4,72.5 92.3,68 C89.7,68.3 86.6,67.4 85.6,66.1 C84.6,64.8 84.1,62.9 84.1,60.3 L84.1,39.3 L96,39.3 L96,25.8 L84.1,25.8 L84.1,11.4 L66.3,11.4 L66.3,25.8 L57.6,25.8 L57.6,39.2 L57.7,39.2 Z"></path>
                            <path d="M120,46.9 C115.8,47.3 112,48.2 108.6,49.5 C105.2,50.8 102.4,52.7 100.2,55.1 C98,57.5 96.9,60.7 96.9,64.7 C96.9,67.9 97.5,70.7 98.8,72.9 C100,75.1 101.6,76.9 103.6,78.2 C105.5,79.5 107.7,80.5 110.1,81.1 C112.5,81.7 114.7,82 116.9,82 C120.2,82 123.3,81.4 126.1,80.1 C128.9,78.9 131,77.1 132.4,74.8 L132.7,74.8 L132.7,80.6 L149.2,80.6 L149.2,53 C149.2,48 148.7,43.7 147.8,40 C146.9,36.4 145.4,33.3 143.4,31 C141.4,28.6 138.8,26.8 135.6,25.7 C132.4,24.6 128.5,24 123.9,24 C119.4,24 115,24.8 110.7,26.3 C106.4,27.8 102.6,30.2 99.4,33.2 L108.6,43 C110.3,41.5 112.3,40.1 114.7,39 C117.1,37.9 119.6,37.3 122.1,37.3 C124.9,37.3 127.2,37.9 129.2,39.2 C131.1,40.5 132.1,42.5 132.1,45.2 L132.1,46.1 C128.3,46.3 124.2,46.5 120,46.9 L120,46.9 Z M132.8,56.8 L132.8,58.7 C132.8,62.2 131.8,64.9 129.9,66.9 C127.9,68.9 125.1,69.9 121.5,69.9 C120.6,69.9 119.7,69.8 118.7,69.6 C117.7,69.4 116.9,69.1 116.2,68.7 C115.5,68.3 114.9,67.7 114.4,66.9 C113.9,66.2 113.7,65.3 113.7,64.3 C113.7,62.7 114.2,61.4 115.2,60.4 C116.2,59.4 117.5,58.7 119.1,58.1 C120.7,57.6 122.5,57.2 124.5,57.1 C126.5,56.9 128.5,56.8 130.5,56.8 L132.8,56.8 L132.8,56.8 Z"></path>
                        </g>
                        <polygon points="449.2 2.7 429.6 2.7 417 54.7 416.7 54.7 406 2.7 386.3 2.7 375.8 54.7 375.4 54.7 363.1 2.7 342.8 2.7 364.9 80.8 377.7 80.8 383.7 80.8 384.5 80.8 396 30.2 407.4 80.8 408.3 80.8 414.2 80.8 426.9 80.8"></polygon>
                        <path d="M496.7,70.9 L484.1,63 C482.8,64.7 481.2,66.1 479.2,67.1 C477.2,68.2 474.8,68.7 471.9,68.7 C470.3,68.7 468.7,68.4 467.2,67.9 C465.7,67.4 464.3,66.7 463.1,65.7 C461.9,64.8 460.9,63.7 460.1,62.4 C459.3,61.2 458.9,59.8 458.7,58.2 L498.5,58.2 C498.6,57.5 498.6,56.8 498.6,56.1 L498.6,54 C498.6,49.3 497.9,45.1 496.6,41.4 C495.2,37.7 493.3,34.6 490.9,32 C488.5,29.4 485.6,27.5 482.2,26.1 C478.8,24.7 475.1,24.1 471.1,24.1 C466.9,24.1 463,24.8 459.4,26.2 C455.8,27.6 452.7,29.6 450,32.1 C447.4,34.6 445.3,37.7 443.7,41.4 C442.2,45 441.4,49.1 441.4,53.6 C441.4,58.2 442.2,62.4 443.8,66 C445.4,69.6 447.5,72.6 450.3,75.1 C453.1,77.6 456.3,79.4 460,80.7 C463.7,82 467.6,82.6 471.7,82.6 C477.3,82.6 482.2,81.6 486.4,79.6 C490.7,77.5 494.1,74.6 496.7,70.9 M460,43 C460.7,41.7 461.5,40.6 462.6,39.6 C463.7,38.6 465,37.9 466.5,37.3 C468,36.7 469.6,36.5 471.4,36.5 C475,36.5 477.7,37.5 479.5,39.6 C481.3,41.7 482.2,44.1 482.2,47 L458.9,47 C458.9,45.6 459.3,44.3 460,43"></path>
                        <path d="M551.6,32 C549.2,29.4 546.3,27.5 542.9,26.1 C539.5,24.7 535.8,24.1 531.8,24.1 C527.6,24.1 523.7,24.8 520.1,26.2 C516.5,27.6 513.4,29.6 510.7,32.1 C508.1,34.6 506,37.7 504.4,41.4 C502.9,45 502.1,49.1 502.1,53.6 C502.1,58.2 502.9,62.4 504.5,66 C506.1,69.6 508.2,72.6 511,75.1 C513.8,77.6 517,79.4 520.7,80.7 C524.4,82 528.3,82.6 532.4,82.6 C538,82.6 542.9,81.6 547.1,79.6 C551.3,77.6 554.7,74.7 557.3,70.9 L544.7,63 C543.5,64.7 541.8,66.1 539.8,67.1 C537.8,68.2 535.4,68.7 532.5,68.7 C530.9,68.7 529.3,68.4 527.8,67.9 C526.3,67.4 524.9,66.7 523.7,65.7 C522.5,64.8 521.5,63.7 520.7,62.4 C519.9,61.2 519.5,59.8 519.3,58.2 L559.1,58.2 C559.2,57.5 559.2,56.8 559.2,56.1 L559.2,54 C559.2,49.3 558.5,45.1 557.2,41.4 C555.9,37.7 554,34.6 551.6,32 L551.6,32 Z M519.3,47 C519.4,45.6 519.7,44.3 520.4,43 C521.1,41.7 521.9,40.6 523,39.6 C524.1,38.6 525.4,37.9 526.9,37.3 C528.4,36.7 530,36.5 531.8,36.5 C535.4,36.5 538.1,37.5 539.9,39.6 C541.7,41.7 542.6,44.1 542.6,47 L519.3,47 L519.3,47 Z"></path>
                        <polygon points="598.2 50.7 619.4 25.9 597.5 25.9 582.2 45.2 582.2 5.5 582.2 2.7 564 2.7 564 80.8 582.2 80.8 582.2 57.8 597.9 80.8 620.3 80.8"></polygon>
                    </g>
                </g>
                <g id="Shape">
                    <path d="M140.1,111.6 L146.8,111.6 L146.8,137.4 L140.1,137.4 L140.1,111.6 Z M119.7,106.1 L122.4,106.1 L122.4,127 L119.7,127 L119.7,106.1 Z M111,106.1 L115.9,106.1 L115.9,137.4 L111,137.4 L111,106.1 Z M104.4,106.1 L107.1,106.1 L107.1,127 L104.4,127 L104.4,106.1 Z M65.3,72.9 C66.9,71.9 69.9,71.2 73.4,71.2 C76.9,71.2 79.8,71.9 81.5,72.9 L81.5,74.6 L65.3,74.6 L65.3,72.9 Z M64.6,105.8 L64.6,98.2 L62,98.2 L62,91.1 L84.8,91.1 L84.8,98.2 L82.2,98.2 L82.2,105.8 L79.6,105.8 L79.6,137.4 L67.2,137.4 L67.2,105.8 L64.6,105.8 L64.6,105.8 Z M103.7,173.9 C79.8,173.9 58,166 41.7,153.1 L165.7,153.1 C149.4,166 127.7,173.9 103.7,173.9 Z"></path>
                    <polygon points="121.9 198.3 125.4 224.5 131.8 224 128.3 197.9"></polygon>
                    <path d="M103.7,0 C46.5,0 0,46.5 0,103.7 C0,121.5 4.5,138.3 12.5,153 C18.3,163.7 25.9,173.2 34.9,181.2 L34.2,184.6 L25,228.8 L29.1,230 C50.7,236.3 75.1,239.8 99.8,240.2 L99.8,240.3 L103.7,240.3 L107.6,240.3 L107.6,240.2 C132.3,239.8 156.7,236.4 178.3,230 L182.4,228.8 L173.2,184.6 L172.5,181.2 C178,176.3 183,170.8 187.4,164.8 C199.9,147.7 207.4,126.5 207.4,103.7 C207.5,46.5 160.9,0 103.7,0 Z M164.6,59.5 C167.5,59.5 169.9,61.9 169.9,64.8 C169.9,67.7 167.5,70.1 164.6,70.1 C161.7,70.1 159.3,67.7 159.3,64.8 C159.3,61.9 161.7,59.5 164.6,59.5 Z M133.6,31.2 C139,31.2 143.4,35.6 143.4,41 C143.4,46.4 139,50.8 133.6,50.8 C128.2,50.8 123.8,46.4 123.8,41 C123.8,35.6 128.2,31.2 133.6,31.2 Z M97.1,15.4 L97.1,29 C41.6,29 21.4,91.2 21.4,91.2 C21.4,49.4 55.3,15.4 97.1,15.4 Z M61.5,222.3 L51.2,221.5 L54.2,195.3 L64.5,196.1 L61.5,222.3 Z M109.1,230.9 L109.1,196.3 L109.1,193 L135.4,191.1 L164.7,189 L171.6,222.3 C152.3,227.5 130.9,230.5 109.1,230.9 Z M190.3,139.1 C190.1,139.6 189.8,140.2 189.6,140.7 C189.4,141.1 189.3,141.5 189.1,141.9 L189.1,141.9 L189.1,141.9 C188.6,143 188.1,144.1 187.5,145.2 C180.5,159.2 170.2,171.2 157.5,180.2 L156.7,180.3 L103.8,184.1 L50.9,180.3 L50.1,180.2 C36.4,170.6 25.4,157.3 18.5,141.9 C17.6,139.8 16.7,137.7 15.9,135.6 L15.9,135.6 C12.3,125.6 10.3,114.9 10.3,103.7 C10.3,98.1 10.8,92.6 11.8,87.3 C11.8,88.1 11.7,88.8 11.7,89.6 C11.7,100.5 14.1,110.9 18.3,120.5 C20.4,125.8 23.1,130.9 26.5,135.6 L36.2,135.6 L36.2,107 L48.7,107 L48.7,125.2 L54,125.2 L54,84.4 L58,84.4 L58,71.8 L58,67.4 L58,56.4 L60.9,56.4 L60.9,67.4 L85.9,67.4 L85.9,56.4 L88.8,56.4 L88.8,67.4 L88.8,71.8 L88.8,84.5 L92.8,84.5 L92.8,125.3 L99.9,125.3 L99.9,101 L105.3,92.1 L121.7,92.1 L127.1,101 L127.1,125.3 L133.9,125.3 L133.9,106.6 L142.8,106.6 L142.8,100.3 L150.8,100.3 L150.8,88.9 L153.5,88.9 L153.5,100.2 L153.5,103.2 L153.5,125.2 L158.9,125.2 L158.9,107 L171,107 L171,135.6 L181,135.6 C184.3,130.9 187,125.9 189.1,120.6 C193.4,111 195.8,100.6 195.8,89.6 C195.8,88.8 195.8,88.1 195.7,87.3 C196.7,92.6 197.2,98.1 197.2,103.7 C197.2,116.3 194.8,128.2 190.3,139.1 L190.3,139.1 Z"></path>
                    <polygon points="80.5 87.2 85 78.1 61.8 78.1 66.3 87.2"></polygon>
                    <path d="M103.7,173.9 C127.6,173.9 149.4,166 165.7,153.1 L41.7,153.1 C58,166 79.8,173.9 103.7,173.9 Z"></path>
                </g>
            </g>
        </g>
    </g>
</svg>