<?xml version="1.0" encoding="UTF-8" standalone="no"?>
<svg width="225px" height="226px" viewBox="0 0 225 226" version="1.1" xmlns="http://www.w3.org/2000/svg" xmlns:xlink="http://www.w3.org/1999/xlink">
    <!-- Generator: Sketch 41 (35326) - http://www.bohemiancoding.com/sketch -->
    <title>contacts copy</title>
    <desc>Created with Sketch.</desc>
    <defs></defs>
    <g id="Design" stroke="none" stroke-width="1" fill="none" fill-rule="evenodd">
        <g id="Volunteers" transform="translate(-608.000000, -210.000000)" fill="#F8AC20">
            <g id="contacts-copy" transform="translate(608.000000, 210.000000)">
                <path d="M112.229019,84.920878 C102.659469,84.920878 94.8739782,92.6985854 94.8739782,102.258569 C94.8739782,111.818553 102.659469,119.59626 112.229019,119.59626 C121.798569,119.59626 129.58406,111.818553 129.58406,102.258569 C129.58406,92.6985854 121.798569,84.920878 112.229019,84.920878 Z M112.229019,110.409268 C107.730245,110.409268 104.070163,106.752846 104.070163,102.258569 C104.070163,97.7642927 107.730245,94.1078699 112.229019,94.1078699 C116.727793,94.1078699 120.387875,97.7642927 120.387875,102.258569 C120.387875,106.752846 116.727793,110.409268 112.229019,110.409268 Z" id="Shape"></path>
                <path d="M112.229019,65.512439 C86.0934605,65.512439 64.830654,86.7539892 64.830654,112.86342 C64.830654,138.972851 86.0934605,160.214401 112.229019,160.214401 C138.364578,160.214401 159.627384,138.972851 159.627384,112.86342 C159.627384,86.7539892 138.364578,65.512439 112.229019,65.512439 Z M94.6777929,146.743209 L94.6777929,131.156558 C94.6777929,129.162981 95.9658719,127.464 97.7548365,126.847247 L112.228406,140.604461 L126.701975,126.847247 C128.490327,127.464 129.779019,129.162981 129.779019,131.156558 L129.779019,146.743209 C124.519414,149.473583 118.553542,151.026184 112.228406,151.026184 C105.90327,151.026797 99.9367847,149.473583 94.6777929,146.743209 Z M138.975817,140.07774 L138.975817,131.157171 C138.975817,123.578515 132.803951,117.413431 125.218324,117.413431 L123.287738,117.413431 L112.229019,127.923962 L101.1703,117.413431 L99.240327,117.413431 C91.6540872,117.413431 85.4828338,123.578515 85.4828338,131.157171 L85.4828338,140.07774 C78.4195504,133.148298 74.0274523,123.510531 74.0274523,112.86342 C74.0274523,91.8203089 91.1648501,74.6994309 112.229632,74.6994309 C133.294414,74.6994309 150.431812,91.8196965 150.431812,112.86342 C150.431199,123.510531 146.039101,133.148298 138.975817,140.07774 Z" id="Shape"></path>
                <path d="M50.6764986,73.1094688 C63.23297,73.1094688 73.4493188,62.9039458 73.4493188,50.3594146 C73.4493188,37.8148835 63.2335831,27.6099729 50.6764986,27.6099729 C38.1194142,27.6099729 27.9042916,37.8154959 27.9042916,50.3600271 C27.9042916,62.9045583 38.1206403,73.1094688 50.6764986,73.1094688 Z M50.6764986,36.7969648 C58.1621935,36.7969648 64.2531335,42.8812033 64.2531335,50.3600271 C64.2531335,57.8388509 58.1628065,63.9230894 50.6764986,63.9230894 C43.1901907,63.9230894 37.0998638,57.8388509 37.0998638,50.3600271 C37.0998638,42.8812033 43.1908038,36.7969648 50.6764986,36.7969648 Z" id="Shape"></path>
                <path d="M45.8111035,112.862808 C45.8111035,100.318889 35.5953678,90.1127534 23.0382834,90.1127534 C10.4811989,90.1127534 0.266076294,100.318889 0.266076294,112.862808 C0.266076294,125.406726 10.481812,135.612862 23.0388965,135.612862 C35.5959809,135.612862 45.8111035,125.407339 45.8111035,112.862808 Z M23.0388965,126.42587 C15.5532016,126.42587 9.46226158,120.341631 9.46226158,112.862808 C9.46226158,105.383984 15.5525886,99.2997453 23.0388965,99.2997453 C30.5252044,99.2997453 36.6155313,105.383984 36.6155313,112.862808 C36.6155313,120.341631 30.5252044,126.42587 23.0388965,126.42587 Z" id="Shape"></path>
                <path d="M201.687057,90.1133659 C189.130586,90.1133659 178.914237,100.318889 178.914237,112.86342 C178.914237,125.407951 189.129973,135.613474 201.687057,135.613474 C214.244142,135.613474 224.459877,125.407951 224.459877,112.86342 C224.459877,100.318889 214.244142,90.1133659 201.687057,90.1133659 Z M201.687057,126.42587 C194.201362,126.42587 188.110422,120.341631 188.110422,112.862808 C188.110422,105.383984 194.200749,99.2997453 201.687057,99.2997453 C209.173365,99.2997453 215.263692,105.383984 215.263692,112.862808 C215.263692,120.341631 209.173365,126.42587 201.687057,126.42587 Z" id="Shape"></path>
                <path d="M112.229019,45.4994959 C124.78549,45.4994959 135.001839,35.2939729 135.001839,22.7494417 C135.001839,10.2049106 124.784877,0 112.229019,0 C99.6731608,0 89.4561989,10.205523 89.4561989,22.7500542 C89.4561989,35.2945854 99.6719346,45.4994959 112.229019,45.4994959 Z M112.229019,9.18699187 C119.714714,9.18699187 125.805654,15.2712304 125.805654,22.7500542 C125.805654,30.228878 119.715327,36.3131165 112.229019,36.3131165 C104.742711,36.3131165 98.6523842,30.228878 98.6523842,22.7500542 C98.6523842,15.2712304 104.742098,9.18699187 112.229019,9.18699187 Z" id="Shape"></path>
                <path d="M175.654496,73.2625854 C188.210967,73.2625854 198.427316,63.0570623 198.427316,50.5125312 C198.427316,37.968 188.21158,27.7630894 175.654496,27.7630894 C163.097411,27.7630894 152.881676,37.9686125 152.881676,50.5131436 C152.881676,63.0576748 163.098025,73.2625854 175.654496,73.2625854 Z M175.654496,36.9500813 C183.140191,36.9500813 189.231131,43.0343198 189.231131,50.5131436 C189.231131,57.9919675 183.140804,64.076206 175.654496,64.076206 C168.168188,64.076206 162.077861,57.9919675 162.077861,50.5131436 C162.077861,43.0343198 168.168801,36.9500813 175.654496,36.9500813 Z" id="Shape"></path>
                <path d="M174.717098,152.616759 C162.160627,152.616759 151.944278,162.822282 151.944278,175.366813 C151.944278,187.911344 162.160014,198.116867 174.717098,198.116867 C187.274183,198.116867 197.489918,187.911344 197.489918,175.366813 C197.489918,162.822282 187.273569,152.616759 174.717098,152.616759 Z M174.717098,188.929263 C167.231403,188.929263 161.140463,182.845024 161.140463,175.366201 C161.140463,167.887377 167.23079,161.803138 174.717098,161.803138 C182.203406,161.803138 188.293733,167.887377 188.293733,175.366201 C188.293733,182.845024 182.202793,188.929263 174.717098,188.929263 Z" id="Shape"></path>
                <path d="M113.165804,180.226732 C100.609332,180.226732 90.3929837,190.432255 90.3929837,202.976786 C90.3929837,215.521317 100.608719,225.72684 113.165804,225.72684 C125.722888,225.72684 135.938624,215.521317 135.938624,202.976786 C135.938624,190.432255 125.722888,180.226732 113.165804,180.226732 Z M113.165804,216.539236 C105.680109,216.539236 99.5891689,210.454997 99.5891689,202.976173 C99.5891689,195.49735 105.679496,189.413111 113.165804,189.413111 C120.652112,189.413111 126.742439,195.49735 126.742439,202.976173 C126.742439,210.454997 120.652112,216.539236 113.165804,216.539236 Z" id="Shape"></path>
                <path d="M49.7391008,152.463642 C37.1826294,152.463642 26.9662807,162.669165 26.9662807,175.213696 C26.9662807,187.758228 37.1820163,197.963751 49.7391008,197.963751 C62.2961853,197.963751 72.511921,187.758228 72.511921,175.213696 C72.511921,162.669165 62.2955722,152.463642 49.7391008,152.463642 Z M49.7391008,188.776146 C42.253406,188.776146 36.1624659,182.691908 36.1624659,175.213084 C36.1624659,167.73426 42.2527929,161.650022 49.7391008,161.650022 C57.2254087,161.650022 63.3157357,167.73426 63.3157357,175.213084 C63.3157357,182.691908 57.2247956,188.776146 49.7391008,188.776146 Z" id="Shape"></path>
            </g>
        </g>
    </g>
</svg>